<mxfile host="app.diagrams.net" modified="2024-02-26T22:56:41.672Z" agent="Mozilla/5.0 (Windows NT 10.0; Win64; x64) AppleWebKit/537.36 (KHTML, like Gecko) Chrome/122.0.0.0 Safari/537.36" etag="4iltYASOzcl3UDArKC4J" version="23.1.7" type="device">
  <diagram id="C5RBs43oDa-KdzZeNtuy" name="Page-1">
    <mxGraphModel dx="2420" dy="2042" grid="1" gridSize="10" guides="1" tooltips="1" connect="1" arrows="1" fold="1" page="1" pageScale="1" pageWidth="827" pageHeight="1169" math="0" shadow="0">
      <root>
        <mxCell id="WIyWlLk6GJQsqaUBKTNV-0" />
        <mxCell id="WIyWlLk6GJQsqaUBKTNV-1" parent="WIyWlLk6GJQsqaUBKTNV-0" />
        <mxCell id="rJBkv8tbgdm5pMixXciQ-154" style="edgeStyle=none;rounded=0;orthogonalLoop=1;jettySize=auto;html=1;exitX=1;exitY=0.5;exitDx=0;exitDy=0;entryX=0;entryY=0.5;entryDx=0;entryDy=0;shadow=0;strokeColor=default;align=center;verticalAlign=middle;fontFamily=Helvetica;fontSize=11;fontColor=default;labelBackgroundColor=default;endArrow=none;endFill=0;curved=1;" parent="WIyWlLk6GJQsqaUBKTNV-1" source="WIyWlLk6GJQsqaUBKTNV-3" target="rJBkv8tbgdm5pMixXciQ-84" edge="1">
          <mxGeometry relative="1" as="geometry">
            <Array as="points">
              <mxPoint x="70" y="-520" />
            </Array>
          </mxGeometry>
        </mxCell>
        <mxCell id="LxOonWfDsJAvFWb8O8E7-158" value="1" style="edgeLabel;html=1;align=center;verticalAlign=middle;resizable=0;points=[];fontFamily=Helvetica;fontSize=11;fontColor=default;labelBackgroundColor=default;" vertex="1" connectable="0" parent="rJBkv8tbgdm5pMixXciQ-154">
          <mxGeometry x="-0.8686" y="-3" relative="1" as="geometry">
            <mxPoint as="offset" />
          </mxGeometry>
        </mxCell>
        <mxCell id="LxOonWfDsJAvFWb8O8E7-23" style="rounded=0;orthogonalLoop=1;jettySize=auto;html=1;exitX=1;exitY=0.5;exitDx=0;exitDy=0;entryX=0;entryY=0.5;entryDx=0;entryDy=0;strokeColor=default;align=center;verticalAlign=middle;fontFamily=Helvetica;fontSize=11;fontColor=default;labelBackgroundColor=default;endArrow=none;endFill=0;curved=1;" edge="1" parent="WIyWlLk6GJQsqaUBKTNV-1" source="WIyWlLk6GJQsqaUBKTNV-3" target="rJBkv8tbgdm5pMixXciQ-87">
          <mxGeometry relative="1" as="geometry">
            <Array as="points">
              <mxPoint x="100" y="210" />
            </Array>
          </mxGeometry>
        </mxCell>
        <mxCell id="LxOonWfDsJAvFWb8O8E7-162" value="1" style="edgeLabel;html=1;align=center;verticalAlign=middle;resizable=0;points=[];fontFamily=Helvetica;fontSize=11;fontColor=default;labelBackgroundColor=default;" vertex="1" connectable="0" parent="LxOonWfDsJAvFWb8O8E7-23">
          <mxGeometry x="-0.6002" y="17" relative="1" as="geometry">
            <mxPoint as="offset" />
          </mxGeometry>
        </mxCell>
        <mxCell id="LxOonWfDsJAvFWb8O8E7-92" style="edgeStyle=orthogonalEdgeStyle;rounded=0;orthogonalLoop=1;jettySize=auto;html=1;exitX=0.5;exitY=1;exitDx=0;exitDy=0;entryX=1;entryY=0.5;entryDx=0;entryDy=0;strokeColor=default;align=center;verticalAlign=middle;fontFamily=Helvetica;fontSize=11;fontColor=default;labelBackgroundColor=default;endArrow=none;endFill=0;curved=1;" edge="1" parent="WIyWlLk6GJQsqaUBKTNV-1" source="WIyWlLk6GJQsqaUBKTNV-3" target="rJBkv8tbgdm5pMixXciQ-73">
          <mxGeometry relative="1" as="geometry" />
        </mxCell>
        <mxCell id="LxOonWfDsJAvFWb8O8E7-93" style="edgeStyle=orthogonalEdgeStyle;rounded=0;orthogonalLoop=1;jettySize=auto;html=1;exitX=0.5;exitY=1;exitDx=0;exitDy=0;entryX=1;entryY=0.5;entryDx=0;entryDy=0;strokeColor=default;align=center;verticalAlign=middle;fontFamily=Helvetica;fontSize=11;fontColor=default;labelBackgroundColor=default;endArrow=none;endFill=0;curved=1;" edge="1" parent="WIyWlLk6GJQsqaUBKTNV-1" source="WIyWlLk6GJQsqaUBKTNV-3" target="rJBkv8tbgdm5pMixXciQ-74">
          <mxGeometry relative="1" as="geometry" />
        </mxCell>
        <mxCell id="LxOonWfDsJAvFWb8O8E7-94" style="edgeStyle=orthogonalEdgeStyle;rounded=0;orthogonalLoop=1;jettySize=auto;html=1;exitX=0.5;exitY=1;exitDx=0;exitDy=0;entryX=1;entryY=0.5;entryDx=0;entryDy=0;strokeColor=default;align=center;verticalAlign=middle;fontFamily=Helvetica;fontSize=11;fontColor=default;labelBackgroundColor=default;endArrow=none;endFill=0;curved=1;" edge="1" parent="WIyWlLk6GJQsqaUBKTNV-1" source="WIyWlLk6GJQsqaUBKTNV-3" target="rJBkv8tbgdm5pMixXciQ-75">
          <mxGeometry relative="1" as="geometry" />
        </mxCell>
        <mxCell id="LxOonWfDsJAvFWb8O8E7-95" style="edgeStyle=orthogonalEdgeStyle;rounded=0;orthogonalLoop=1;jettySize=auto;html=1;exitX=0.5;exitY=1;exitDx=0;exitDy=0;entryX=1;entryY=0.5;entryDx=0;entryDy=0;strokeColor=default;align=center;verticalAlign=middle;fontFamily=Helvetica;fontSize=11;fontColor=default;labelBackgroundColor=default;endArrow=none;endFill=0;curved=1;" edge="1" parent="WIyWlLk6GJQsqaUBKTNV-1" source="WIyWlLk6GJQsqaUBKTNV-3" target="LxOonWfDsJAvFWb8O8E7-25">
          <mxGeometry relative="1" as="geometry" />
        </mxCell>
        <mxCell id="LxOonWfDsJAvFWb8O8E7-96" style="edgeStyle=orthogonalEdgeStyle;rounded=0;orthogonalLoop=1;jettySize=auto;html=1;exitX=0.5;exitY=1;exitDx=0;exitDy=0;entryX=1;entryY=0.5;entryDx=0;entryDy=0;strokeColor=default;align=center;verticalAlign=middle;fontFamily=Helvetica;fontSize=11;fontColor=default;labelBackgroundColor=default;endArrow=none;endFill=0;curved=1;" edge="1" parent="WIyWlLk6GJQsqaUBKTNV-1" source="WIyWlLk6GJQsqaUBKTNV-3" target="LxOonWfDsJAvFWb8O8E7-71">
          <mxGeometry relative="1" as="geometry" />
        </mxCell>
        <mxCell id="LxOonWfDsJAvFWb8O8E7-97" style="edgeStyle=orthogonalEdgeStyle;rounded=0;orthogonalLoop=1;jettySize=auto;html=1;exitX=0.5;exitY=1;exitDx=0;exitDy=0;entryX=1;entryY=0.5;entryDx=0;entryDy=0;strokeColor=default;align=center;verticalAlign=middle;fontFamily=Helvetica;fontSize=11;fontColor=default;labelBackgroundColor=default;endArrow=none;endFill=0;curved=1;" edge="1" parent="WIyWlLk6GJQsqaUBKTNV-1" source="WIyWlLk6GJQsqaUBKTNV-3" target="LxOonWfDsJAvFWb8O8E7-69">
          <mxGeometry relative="1" as="geometry" />
        </mxCell>
        <mxCell id="LxOonWfDsJAvFWb8O8E7-113" style="edgeStyle=orthogonalEdgeStyle;rounded=0;orthogonalLoop=1;jettySize=auto;html=1;exitX=1;exitY=0.5;exitDx=0;exitDy=0;entryX=0;entryY=0.5;entryDx=0;entryDy=0;strokeColor=default;align=center;verticalAlign=middle;fontFamily=Helvetica;fontSize=11;fontColor=default;labelBackgroundColor=default;endArrow=none;endFill=0;curved=1;" edge="1" parent="WIyWlLk6GJQsqaUBKTNV-1" source="WIyWlLk6GJQsqaUBKTNV-3" target="rJBkv8tbgdm5pMixXciQ-67">
          <mxGeometry relative="1" as="geometry" />
        </mxCell>
        <mxCell id="LxOonWfDsJAvFWb8O8E7-160" value="1" style="edgeLabel;html=1;align=center;verticalAlign=middle;resizable=0;points=[];fontFamily=Helvetica;fontSize=11;fontColor=default;labelBackgroundColor=default;" vertex="1" connectable="0" parent="LxOonWfDsJAvFWb8O8E7-113">
          <mxGeometry x="-0.0429" relative="1" as="geometry">
            <mxPoint as="offset" />
          </mxGeometry>
        </mxCell>
        <mxCell id="LxOonWfDsJAvFWb8O8E7-114" style="edgeStyle=orthogonalEdgeStyle;rounded=0;orthogonalLoop=1;jettySize=auto;html=1;exitX=1;exitY=0.5;exitDx=0;exitDy=0;entryX=0;entryY=0.5;entryDx=0;entryDy=0;strokeColor=default;align=center;verticalAlign=middle;fontFamily=Helvetica;fontSize=11;fontColor=default;labelBackgroundColor=default;endArrow=none;endFill=0;curved=1;" edge="1" parent="WIyWlLk6GJQsqaUBKTNV-1" source="WIyWlLk6GJQsqaUBKTNV-3" target="rJBkv8tbgdm5pMixXciQ-5">
          <mxGeometry relative="1" as="geometry" />
        </mxCell>
        <mxCell id="LxOonWfDsJAvFWb8O8E7-159" value="1" style="edgeLabel;html=1;align=center;verticalAlign=middle;resizable=0;points=[];fontFamily=Helvetica;fontSize=11;fontColor=default;labelBackgroundColor=default;" vertex="1" connectable="0" parent="LxOonWfDsJAvFWb8O8E7-114">
          <mxGeometry x="-0.0841" y="1" relative="1" as="geometry">
            <mxPoint as="offset" />
          </mxGeometry>
        </mxCell>
        <mxCell id="LxOonWfDsJAvFWb8O8E7-131" style="edgeStyle=orthogonalEdgeStyle;rounded=0;orthogonalLoop=1;jettySize=auto;html=1;exitX=1;exitY=0.5;exitDx=0;exitDy=0;entryX=0;entryY=0.5;entryDx=0;entryDy=0;strokeColor=default;align=center;verticalAlign=middle;fontFamily=Helvetica;fontSize=11;fontColor=default;labelBackgroundColor=default;endArrow=none;endFill=0;curved=1;" edge="1" parent="WIyWlLk6GJQsqaUBKTNV-1" source="WIyWlLk6GJQsqaUBKTNV-3" target="LxOonWfDsJAvFWb8O8E7-129">
          <mxGeometry relative="1" as="geometry" />
        </mxCell>
        <mxCell id="LxOonWfDsJAvFWb8O8E7-161" value="1" style="edgeLabel;html=1;align=center;verticalAlign=middle;resizable=0;points=[];fontFamily=Helvetica;fontSize=11;fontColor=default;labelBackgroundColor=default;" vertex="1" connectable="0" parent="LxOonWfDsJAvFWb8O8E7-131">
          <mxGeometry x="-0.6223" y="-15" relative="1" as="geometry">
            <mxPoint as="offset" />
          </mxGeometry>
        </mxCell>
        <mxCell id="LxOonWfDsJAvFWb8O8E7-207" style="edgeStyle=orthogonalEdgeStyle;rounded=0;orthogonalLoop=1;jettySize=auto;html=1;exitX=0.5;exitY=1;exitDx=0;exitDy=0;entryX=1;entryY=0.5;entryDx=0;entryDy=0;strokeColor=default;align=center;verticalAlign=middle;fontFamily=Helvetica;fontSize=11;fontColor=default;labelBackgroundColor=default;endArrow=none;endFill=0;curved=1;" edge="1" parent="WIyWlLk6GJQsqaUBKTNV-1" source="WIyWlLk6GJQsqaUBKTNV-3" target="LxOonWfDsJAvFWb8O8E7-206">
          <mxGeometry relative="1" as="geometry" />
        </mxCell>
        <mxCell id="WIyWlLk6GJQsqaUBKTNV-3" value="user" style="rounded=1;whiteSpace=wrap;html=1;fontSize=12;glass=0;strokeWidth=1;shadow=0;" parent="WIyWlLk6GJQsqaUBKTNV-1" vertex="1">
          <mxGeometry x="-220" y="-210" width="120" height="40" as="geometry" />
        </mxCell>
        <mxCell id="LxOonWfDsJAvFWb8O8E7-85" style="edgeStyle=orthogonalEdgeStyle;rounded=0;orthogonalLoop=1;jettySize=auto;html=1;exitX=0.5;exitY=1;exitDx=0;exitDy=0;entryX=0;entryY=0.5;entryDx=0;entryDy=0;strokeColor=default;align=center;verticalAlign=middle;fontFamily=Helvetica;fontSize=11;fontColor=default;labelBackgroundColor=default;endArrow=none;endFill=0;curved=1;" edge="1" parent="WIyWlLk6GJQsqaUBKTNV-1" source="WIyWlLk6GJQsqaUBKTNV-7" target="LxOonWfDsJAvFWb8O8E7-62">
          <mxGeometry relative="1" as="geometry" />
        </mxCell>
        <mxCell id="LxOonWfDsJAvFWb8O8E7-86" style="edgeStyle=orthogonalEdgeStyle;rounded=0;orthogonalLoop=1;jettySize=auto;html=1;exitX=0.5;exitY=1;exitDx=0;exitDy=0;entryX=0;entryY=0.5;entryDx=0;entryDy=0;strokeColor=default;align=center;verticalAlign=middle;fontFamily=Helvetica;fontSize=11;fontColor=default;labelBackgroundColor=default;endArrow=none;endFill=0;curved=1;" edge="1" parent="WIyWlLk6GJQsqaUBKTNV-1" source="WIyWlLk6GJQsqaUBKTNV-7" target="LxOonWfDsJAvFWb8O8E7-63">
          <mxGeometry relative="1" as="geometry" />
        </mxCell>
        <mxCell id="LxOonWfDsJAvFWb8O8E7-88" style="edgeStyle=orthogonalEdgeStyle;rounded=0;orthogonalLoop=1;jettySize=auto;html=1;exitX=0.5;exitY=1;exitDx=0;exitDy=0;entryX=0;entryY=0.5;entryDx=0;entryDy=0;strokeColor=default;align=center;verticalAlign=middle;fontFamily=Helvetica;fontSize=11;fontColor=default;labelBackgroundColor=default;endArrow=none;endFill=0;curved=1;" edge="1" parent="WIyWlLk6GJQsqaUBKTNV-1" source="WIyWlLk6GJQsqaUBKTNV-7" target="LxOonWfDsJAvFWb8O8E7-64">
          <mxGeometry relative="1" as="geometry" />
        </mxCell>
        <mxCell id="LxOonWfDsJAvFWb8O8E7-123" style="edgeStyle=orthogonalEdgeStyle;rounded=0;orthogonalLoop=1;jettySize=auto;html=1;exitX=1;exitY=0.5;exitDx=0;exitDy=0;entryX=0;entryY=0.5;entryDx=0;entryDy=0;strokeColor=default;align=center;verticalAlign=middle;fontFamily=Helvetica;fontSize=11;fontColor=default;labelBackgroundColor=default;endArrow=none;endFill=0;curved=1;" edge="1" parent="WIyWlLk6GJQsqaUBKTNV-1" source="WIyWlLk6GJQsqaUBKTNV-7" target="rJBkv8tbgdm5pMixXciQ-1">
          <mxGeometry relative="1" as="geometry" />
        </mxCell>
        <mxCell id="LxOonWfDsJAvFWb8O8E7-171" value="1" style="edgeLabel;html=1;align=center;verticalAlign=middle;resizable=0;points=[];fontFamily=Helvetica;fontSize=11;fontColor=default;labelBackgroundColor=default;" vertex="1" connectable="0" parent="LxOonWfDsJAvFWb8O8E7-123">
          <mxGeometry x="-0.7401" y="2" relative="1" as="geometry">
            <mxPoint as="offset" />
          </mxGeometry>
        </mxCell>
        <mxCell id="WIyWlLk6GJQsqaUBKTNV-7" value="cart" style="rounded=1;whiteSpace=wrap;html=1;fontSize=12;glass=0;strokeWidth=1;shadow=0;" parent="WIyWlLk6GJQsqaUBKTNV-1" vertex="1">
          <mxGeometry x="345" y="-480" width="120" height="40" as="geometry" />
        </mxCell>
        <mxCell id="LxOonWfDsJAvFWb8O8E7-124" style="edgeStyle=orthogonalEdgeStyle;rounded=0;orthogonalLoop=1;jettySize=auto;html=1;exitX=1;exitY=0.5;exitDx=0;exitDy=0;entryX=0;entryY=0.5;entryDx=0;entryDy=0;strokeColor=default;align=center;verticalAlign=middle;fontFamily=Helvetica;fontSize=11;fontColor=default;labelBackgroundColor=default;endArrow=none;endFill=0;curved=1;" edge="1" parent="WIyWlLk6GJQsqaUBKTNV-1" source="rJBkv8tbgdm5pMixXciQ-1" target="rJBkv8tbgdm5pMixXciQ-4">
          <mxGeometry relative="1" as="geometry" />
        </mxCell>
        <mxCell id="LxOonWfDsJAvFWb8O8E7-170" value="N" style="edgeLabel;html=1;align=center;verticalAlign=middle;resizable=0;points=[];fontFamily=Helvetica;fontSize=11;fontColor=default;labelBackgroundColor=default;" vertex="1" connectable="0" parent="LxOonWfDsJAvFWb8O8E7-124">
          <mxGeometry x="0.8206" y="-1" relative="1" as="geometry">
            <mxPoint as="offset" />
          </mxGeometry>
        </mxCell>
        <mxCell id="rJBkv8tbgdm5pMixXciQ-1" value="contains" style="rhombus;whiteSpace=wrap;html=1;shadow=0;fontFamily=Helvetica;fontSize=12;align=center;strokeWidth=1;spacing=6;spacingTop=-4;" parent="WIyWlLk6GJQsqaUBKTNV-1" vertex="1">
          <mxGeometry x="550" y="-570" width="120" height="80" as="geometry" />
        </mxCell>
        <mxCell id="LxOonWfDsJAvFWb8O8E7-74" style="edgeStyle=orthogonalEdgeStyle;rounded=0;orthogonalLoop=1;jettySize=auto;html=1;exitX=0.5;exitY=1;exitDx=0;exitDy=0;entryX=0;entryY=0.5;entryDx=0;entryDy=0;strokeColor=default;align=center;verticalAlign=middle;fontFamily=Helvetica;fontSize=11;fontColor=default;labelBackgroundColor=default;endArrow=none;endFill=0;curved=1;" edge="1" parent="WIyWlLk6GJQsqaUBKTNV-1" source="rJBkv8tbgdm5pMixXciQ-4" target="LxOonWfDsJAvFWb8O8E7-73">
          <mxGeometry relative="1" as="geometry" />
        </mxCell>
        <mxCell id="LxOonWfDsJAvFWb8O8E7-76" style="edgeStyle=orthogonalEdgeStyle;rounded=0;orthogonalLoop=1;jettySize=auto;html=1;exitX=0.5;exitY=1;exitDx=0;exitDy=0;entryX=0;entryY=0.5;entryDx=0;entryDy=0;strokeColor=default;align=center;verticalAlign=middle;fontFamily=Helvetica;fontSize=11;fontColor=default;labelBackgroundColor=default;endArrow=none;endFill=0;curved=1;" edge="1" parent="WIyWlLk6GJQsqaUBKTNV-1" source="rJBkv8tbgdm5pMixXciQ-4" target="LxOonWfDsJAvFWb8O8E7-75">
          <mxGeometry relative="1" as="geometry" />
        </mxCell>
        <mxCell id="LxOonWfDsJAvFWb8O8E7-78" style="edgeStyle=orthogonalEdgeStyle;rounded=0;orthogonalLoop=1;jettySize=auto;html=1;exitX=0.5;exitY=1;exitDx=0;exitDy=0;entryX=0;entryY=0.5;entryDx=0;entryDy=0;strokeColor=default;align=center;verticalAlign=middle;fontFamily=Helvetica;fontSize=11;fontColor=default;labelBackgroundColor=default;endArrow=none;endFill=0;curved=1;" edge="1" parent="WIyWlLk6GJQsqaUBKTNV-1" source="rJBkv8tbgdm5pMixXciQ-4" target="LxOonWfDsJAvFWb8O8E7-77">
          <mxGeometry relative="1" as="geometry" />
        </mxCell>
        <mxCell id="LxOonWfDsJAvFWb8O8E7-80" style="edgeStyle=orthogonalEdgeStyle;rounded=0;orthogonalLoop=1;jettySize=auto;html=1;exitX=0.5;exitY=1;exitDx=0;exitDy=0;entryX=0;entryY=0.5;entryDx=0;entryDy=0;strokeColor=default;align=center;verticalAlign=middle;fontFamily=Helvetica;fontSize=11;fontColor=default;labelBackgroundColor=default;endArrow=none;endFill=0;curved=1;" edge="1" parent="WIyWlLk6GJQsqaUBKTNV-1" source="rJBkv8tbgdm5pMixXciQ-4" target="LxOonWfDsJAvFWb8O8E7-79">
          <mxGeometry relative="1" as="geometry" />
        </mxCell>
        <mxCell id="LxOonWfDsJAvFWb8O8E7-117" style="edgeStyle=orthogonalEdgeStyle;rounded=0;orthogonalLoop=1;jettySize=auto;html=1;exitX=1;exitY=0.5;exitDx=0;exitDy=0;entryX=0;entryY=0.5;entryDx=0;entryDy=0;strokeColor=default;align=center;verticalAlign=middle;fontFamily=Helvetica;fontSize=11;fontColor=default;labelBackgroundColor=default;endArrow=none;endFill=0;curved=1;" edge="1" parent="WIyWlLk6GJQsqaUBKTNV-1" source="rJBkv8tbgdm5pMixXciQ-4" target="rJBkv8tbgdm5pMixXciQ-7">
          <mxGeometry relative="1" as="geometry" />
        </mxCell>
        <mxCell id="LxOonWfDsJAvFWb8O8E7-169" value="N" style="edgeLabel;html=1;align=center;verticalAlign=middle;resizable=0;points=[];fontFamily=Helvetica;fontSize=11;fontColor=default;labelBackgroundColor=default;" vertex="1" connectable="0" parent="LxOonWfDsJAvFWb8O8E7-117">
          <mxGeometry x="-0.8715" relative="1" as="geometry">
            <mxPoint as="offset" />
          </mxGeometry>
        </mxCell>
        <mxCell id="LxOonWfDsJAvFWb8O8E7-214" style="edgeStyle=orthogonalEdgeStyle;rounded=0;orthogonalLoop=1;jettySize=auto;html=1;exitX=0.5;exitY=1;exitDx=0;exitDy=0;entryX=0;entryY=0.5;entryDx=0;entryDy=0;strokeColor=default;align=center;verticalAlign=middle;fontFamily=Helvetica;fontSize=11;fontColor=default;labelBackgroundColor=default;endArrow=none;endFill=0;curved=1;" edge="1" parent="WIyWlLk6GJQsqaUBKTNV-1" source="rJBkv8tbgdm5pMixXciQ-4" target="LxOonWfDsJAvFWb8O8E7-213">
          <mxGeometry relative="1" as="geometry" />
        </mxCell>
        <mxCell id="rJBkv8tbgdm5pMixXciQ-4" value="cart_item" style="rounded=1;whiteSpace=wrap;html=1;fontSize=12;glass=0;strokeWidth=1;shadow=0;" parent="WIyWlLk6GJQsqaUBKTNV-1" vertex="1">
          <mxGeometry x="755" y="-594" width="120" height="40" as="geometry" />
        </mxCell>
        <mxCell id="LxOonWfDsJAvFWb8O8E7-122" style="edgeStyle=orthogonalEdgeStyle;rounded=0;orthogonalLoop=1;jettySize=auto;html=1;exitX=1;exitY=0.5;exitDx=0;exitDy=0;entryX=0;entryY=0.5;entryDx=0;entryDy=0;strokeColor=default;align=center;verticalAlign=middle;fontFamily=Helvetica;fontSize=11;fontColor=default;labelBackgroundColor=default;endArrow=none;endFill=0;curved=1;" edge="1" parent="WIyWlLk6GJQsqaUBKTNV-1" source="rJBkv8tbgdm5pMixXciQ-5" target="WIyWlLk6GJQsqaUBKTNV-7">
          <mxGeometry relative="1" as="geometry" />
        </mxCell>
        <mxCell id="LxOonWfDsJAvFWb8O8E7-172" value="N" style="edgeLabel;html=1;align=center;verticalAlign=middle;resizable=0;points=[];fontFamily=Helvetica;fontSize=11;fontColor=default;labelBackgroundColor=default;" vertex="1" connectable="0" parent="LxOonWfDsJAvFWb8O8E7-122">
          <mxGeometry x="0.9053" y="-1" relative="1" as="geometry">
            <mxPoint as="offset" />
          </mxGeometry>
        </mxCell>
        <mxCell id="rJBkv8tbgdm5pMixXciQ-5" value="has" style="rhombus;whiteSpace=wrap;html=1;shadow=0;fontFamily=Helvetica;fontSize=12;align=center;strokeWidth=1;spacing=6;spacingTop=-4;" parent="WIyWlLk6GJQsqaUBKTNV-1" vertex="1">
          <mxGeometry x="70" y="-350" width="120" height="80" as="geometry" />
        </mxCell>
        <mxCell id="LxOonWfDsJAvFWb8O8E7-19" style="edgeStyle=orthogonalEdgeStyle;rounded=0;orthogonalLoop=1;jettySize=auto;html=1;exitX=1;exitY=0.5;exitDx=0;exitDy=0;entryX=0;entryY=0.5;entryDx=0;entryDy=0;strokeColor=default;align=center;verticalAlign=middle;fontFamily=Helvetica;fontSize=11;fontColor=default;labelBackgroundColor=default;endArrow=none;endFill=0;curved=1;" edge="1" parent="WIyWlLk6GJQsqaUBKTNV-1" source="rJBkv8tbgdm5pMixXciQ-6" target="rJBkv8tbgdm5pMixXciQ-88">
          <mxGeometry relative="1" as="geometry" />
        </mxCell>
        <mxCell id="LxOonWfDsJAvFWb8O8E7-187" value="1" style="edgeLabel;html=1;align=center;verticalAlign=middle;resizable=0;points=[];fontFamily=Helvetica;fontSize=11;fontColor=default;labelBackgroundColor=default;" vertex="1" connectable="0" parent="LxOonWfDsJAvFWb8O8E7-19">
          <mxGeometry x="-0.7223" y="-17" relative="1" as="geometry">
            <mxPoint as="offset" />
          </mxGeometry>
        </mxCell>
        <mxCell id="LxOonWfDsJAvFWb8O8E7-125" style="edgeStyle=orthogonalEdgeStyle;rounded=0;orthogonalLoop=1;jettySize=auto;html=1;exitX=1;exitY=0.5;exitDx=0;exitDy=0;entryX=0;entryY=0.5;entryDx=0;entryDy=0;strokeColor=default;align=center;verticalAlign=middle;fontFamily=Helvetica;fontSize=11;fontColor=default;labelBackgroundColor=default;endArrow=none;endFill=0;curved=1;" edge="1" parent="WIyWlLk6GJQsqaUBKTNV-1" source="rJBkv8tbgdm5pMixXciQ-6" target="rJBkv8tbgdm5pMixXciQ-65">
          <mxGeometry relative="1" as="geometry" />
        </mxCell>
        <mxCell id="LxOonWfDsJAvFWb8O8E7-189" value="1" style="edgeLabel;html=1;align=center;verticalAlign=middle;resizable=0;points=[];fontFamily=Helvetica;fontSize=11;fontColor=default;labelBackgroundColor=default;" vertex="1" connectable="0" parent="LxOonWfDsJAvFWb8O8E7-125">
          <mxGeometry x="-0.2444" y="5" relative="1" as="geometry">
            <mxPoint as="offset" />
          </mxGeometry>
        </mxCell>
        <mxCell id="LxOonWfDsJAvFWb8O8E7-127" style="edgeStyle=orthogonalEdgeStyle;rounded=0;orthogonalLoop=1;jettySize=auto;html=1;exitX=1;exitY=0.5;exitDx=0;exitDy=0;entryX=0;entryY=0.5;entryDx=0;entryDy=0;strokeColor=default;align=center;verticalAlign=middle;fontFamily=Helvetica;fontSize=11;fontColor=default;labelBackgroundColor=default;endArrow=none;endFill=0;curved=1;" edge="1" parent="WIyWlLk6GJQsqaUBKTNV-1" source="rJBkv8tbgdm5pMixXciQ-6" target="rJBkv8tbgdm5pMixXciQ-81">
          <mxGeometry relative="1" as="geometry" />
        </mxCell>
        <mxCell id="LxOonWfDsJAvFWb8O8E7-191" value="N" style="edgeLabel;html=1;align=center;verticalAlign=middle;resizable=0;points=[];fontFamily=Helvetica;fontSize=11;fontColor=default;labelBackgroundColor=default;" vertex="1" connectable="0" parent="LxOonWfDsJAvFWb8O8E7-127">
          <mxGeometry x="-0.0576" y="-8" relative="1" as="geometry">
            <mxPoint as="offset" />
          </mxGeometry>
        </mxCell>
        <mxCell id="LxOonWfDsJAvFWb8O8E7-178" style="edgeStyle=orthogonalEdgeStyle;rounded=0;orthogonalLoop=1;jettySize=auto;html=1;exitX=0.5;exitY=1;exitDx=0;exitDy=0;entryX=0;entryY=0.5;entryDx=0;entryDy=0;strokeColor=default;align=center;verticalAlign=middle;fontFamily=Helvetica;fontSize=11;fontColor=default;labelBackgroundColor=default;endArrow=none;endFill=0;curved=1;" edge="1" parent="WIyWlLk6GJQsqaUBKTNV-1" source="rJBkv8tbgdm5pMixXciQ-6" target="LxOonWfDsJAvFWb8O8E7-177">
          <mxGeometry relative="1" as="geometry" />
        </mxCell>
        <mxCell id="LxOonWfDsJAvFWb8O8E7-182" style="edgeStyle=orthogonalEdgeStyle;rounded=0;orthogonalLoop=1;jettySize=auto;html=1;exitX=0.5;exitY=1;exitDx=0;exitDy=0;entryX=0;entryY=0.5;entryDx=0;entryDy=0;strokeColor=default;align=center;verticalAlign=middle;fontFamily=Helvetica;fontSize=11;fontColor=default;labelBackgroundColor=default;endArrow=none;endFill=0;curved=1;" edge="1" parent="WIyWlLk6GJQsqaUBKTNV-1" source="rJBkv8tbgdm5pMixXciQ-6" target="LxOonWfDsJAvFWb8O8E7-179">
          <mxGeometry relative="1" as="geometry" />
        </mxCell>
        <mxCell id="LxOonWfDsJAvFWb8O8E7-183" style="edgeStyle=orthogonalEdgeStyle;rounded=0;orthogonalLoop=1;jettySize=auto;html=1;exitX=0.5;exitY=1;exitDx=0;exitDy=0;entryX=0;entryY=0.5;entryDx=0;entryDy=0;strokeColor=default;align=center;verticalAlign=middle;fontFamily=Helvetica;fontSize=11;fontColor=default;labelBackgroundColor=default;endArrow=none;endFill=0;curved=1;" edge="1" parent="WIyWlLk6GJQsqaUBKTNV-1" source="rJBkv8tbgdm5pMixXciQ-6" target="LxOonWfDsJAvFWb8O8E7-180">
          <mxGeometry relative="1" as="geometry" />
        </mxCell>
        <mxCell id="LxOonWfDsJAvFWb8O8E7-184" style="edgeStyle=orthogonalEdgeStyle;rounded=0;orthogonalLoop=1;jettySize=auto;html=1;exitX=0.5;exitY=1;exitDx=0;exitDy=0;entryX=0;entryY=0.5;entryDx=0;entryDy=0;strokeColor=default;align=center;verticalAlign=middle;fontFamily=Helvetica;fontSize=11;fontColor=default;labelBackgroundColor=default;endArrow=none;endFill=0;curved=1;" edge="1" parent="WIyWlLk6GJQsqaUBKTNV-1" source="rJBkv8tbgdm5pMixXciQ-6" target="LxOonWfDsJAvFWb8O8E7-181">
          <mxGeometry relative="1" as="geometry" />
        </mxCell>
        <mxCell id="LxOonWfDsJAvFWb8O8E7-193" style="edgeStyle=orthogonalEdgeStyle;rounded=0;orthogonalLoop=1;jettySize=auto;html=1;exitX=0.5;exitY=1;exitDx=0;exitDy=0;entryX=0;entryY=0.5;entryDx=0;entryDy=0;strokeColor=default;align=center;verticalAlign=middle;fontFamily=Helvetica;fontSize=11;fontColor=default;labelBackgroundColor=default;endArrow=none;endFill=0;curved=1;" edge="1" parent="WIyWlLk6GJQsqaUBKTNV-1" source="rJBkv8tbgdm5pMixXciQ-6" target="LxOonWfDsJAvFWb8O8E7-192">
          <mxGeometry relative="1" as="geometry" />
        </mxCell>
        <mxCell id="LxOonWfDsJAvFWb8O8E7-195" style="edgeStyle=orthogonalEdgeStyle;rounded=0;orthogonalLoop=1;jettySize=auto;html=1;exitX=0.5;exitY=1;exitDx=0;exitDy=0;entryX=0;entryY=0.5;entryDx=0;entryDy=0;strokeColor=default;align=center;verticalAlign=middle;fontFamily=Helvetica;fontSize=11;fontColor=default;labelBackgroundColor=default;endArrow=none;endFill=0;curved=1;" edge="1" parent="WIyWlLk6GJQsqaUBKTNV-1" source="rJBkv8tbgdm5pMixXciQ-6" target="LxOonWfDsJAvFWb8O8E7-194">
          <mxGeometry relative="1" as="geometry" />
        </mxCell>
        <mxCell id="rJBkv8tbgdm5pMixXciQ-6" value="product" style="rounded=1;whiteSpace=wrap;html=1;fontSize=12;glass=0;strokeWidth=1;shadow=0;" parent="WIyWlLk6GJQsqaUBKTNV-1" vertex="1">
          <mxGeometry x="1200" y="-200" width="120" height="40" as="geometry" />
        </mxCell>
        <mxCell id="LxOonWfDsJAvFWb8O8E7-116" style="edgeStyle=orthogonalEdgeStyle;rounded=0;orthogonalLoop=1;jettySize=auto;html=1;exitX=1;exitY=0.5;exitDx=0;exitDy=0;entryX=0;entryY=0.5;entryDx=0;entryDy=0;strokeColor=default;align=center;verticalAlign=middle;fontFamily=Helvetica;fontSize=11;fontColor=default;labelBackgroundColor=default;endArrow=none;endFill=0;curved=1;" edge="1" parent="WIyWlLk6GJQsqaUBKTNV-1" source="rJBkv8tbgdm5pMixXciQ-7" target="rJBkv8tbgdm5pMixXciQ-6">
          <mxGeometry relative="1" as="geometry" />
        </mxCell>
        <mxCell id="LxOonWfDsJAvFWb8O8E7-168" value="1" style="edgeLabel;html=1;align=center;verticalAlign=middle;resizable=0;points=[];fontFamily=Helvetica;fontSize=11;fontColor=default;labelBackgroundColor=default;" vertex="1" connectable="0" parent="LxOonWfDsJAvFWb8O8E7-116">
          <mxGeometry x="0.7053" y="14" relative="1" as="geometry">
            <mxPoint as="offset" />
          </mxGeometry>
        </mxCell>
        <mxCell id="rJBkv8tbgdm5pMixXciQ-7" value="is" style="rhombus;whiteSpace=wrap;html=1;shadow=0;fontFamily=Helvetica;fontSize=12;align=center;strokeWidth=1;spacing=6;spacingTop=-4;" parent="WIyWlLk6GJQsqaUBKTNV-1" vertex="1">
          <mxGeometry x="1020" y="-530" width="120" height="80" as="geometry" />
        </mxCell>
        <mxCell id="rJBkv8tbgdm5pMixXciQ-173" style="edgeStyle=none;rounded=0;orthogonalLoop=1;jettySize=auto;html=1;exitX=0.5;exitY=1;exitDx=0;exitDy=0;entryX=0;entryY=0.5;entryDx=0;entryDy=0;shadow=0;strokeColor=default;align=center;verticalAlign=middle;fontFamily=Helvetica;fontSize=11;fontColor=default;labelBackgroundColor=default;endArrow=none;endFill=0;curved=1;" parent="WIyWlLk6GJQsqaUBKTNV-1" source="rJBkv8tbgdm5pMixXciQ-64" target="rJBkv8tbgdm5pMixXciQ-172" edge="1">
          <mxGeometry relative="1" as="geometry">
            <Array as="points">
              <mxPoint x="1847.82" y="20" />
            </Array>
          </mxGeometry>
        </mxCell>
        <mxCell id="LxOonWfDsJAvFWb8O8E7-11" style="edgeStyle=orthogonalEdgeStyle;rounded=0;orthogonalLoop=1;jettySize=auto;html=1;exitX=0.5;exitY=1;exitDx=0;exitDy=0;entryX=0;entryY=0.5;entryDx=0;entryDy=0;strokeColor=default;align=center;verticalAlign=middle;fontFamily=Helvetica;fontSize=11;fontColor=default;labelBackgroundColor=default;endArrow=none;endFill=0;curved=1;" edge="1" parent="WIyWlLk6GJQsqaUBKTNV-1" source="rJBkv8tbgdm5pMixXciQ-64" target="LxOonWfDsJAvFWb8O8E7-10">
          <mxGeometry relative="1" as="geometry" />
        </mxCell>
        <mxCell id="LxOonWfDsJAvFWb8O8E7-201" style="edgeStyle=orthogonalEdgeStyle;rounded=0;orthogonalLoop=1;jettySize=auto;html=1;exitX=0.5;exitY=1;exitDx=0;exitDy=0;entryX=0;entryY=0.5;entryDx=0;entryDy=0;strokeColor=default;align=center;verticalAlign=middle;fontFamily=Helvetica;fontSize=11;fontColor=default;labelBackgroundColor=default;endArrow=none;endFill=0;curved=1;" edge="1" parent="WIyWlLk6GJQsqaUBKTNV-1" source="rJBkv8tbgdm5pMixXciQ-64" target="LxOonWfDsJAvFWb8O8E7-199">
          <mxGeometry relative="1" as="geometry" />
        </mxCell>
        <mxCell id="rJBkv8tbgdm5pMixXciQ-64" value="category" style="rounded=1;whiteSpace=wrap;html=1;fontSize=12;glass=0;strokeWidth=1;shadow=0;" parent="WIyWlLk6GJQsqaUBKTNV-1" vertex="1">
          <mxGeometry x="1788" y="-70" width="120" height="40" as="geometry" />
        </mxCell>
        <mxCell id="LxOonWfDsJAvFWb8O8E7-126" style="edgeStyle=orthogonalEdgeStyle;rounded=0;orthogonalLoop=1;jettySize=auto;html=1;exitX=1;exitY=0.5;exitDx=0;exitDy=0;entryX=0;entryY=0.5;entryDx=0;entryDy=0;strokeColor=default;align=center;verticalAlign=middle;fontFamily=Helvetica;fontSize=11;fontColor=default;labelBackgroundColor=default;endArrow=none;endFill=0;curved=1;" edge="1" parent="WIyWlLk6GJQsqaUBKTNV-1" source="rJBkv8tbgdm5pMixXciQ-65" target="rJBkv8tbgdm5pMixXciQ-82">
          <mxGeometry relative="1" as="geometry" />
        </mxCell>
        <mxCell id="LxOonWfDsJAvFWb8O8E7-204" value="N" style="edgeLabel;html=1;align=center;verticalAlign=middle;resizable=0;points=[];fontFamily=Helvetica;fontSize=11;fontColor=default;labelBackgroundColor=default;" vertex="1" connectable="0" parent="LxOonWfDsJAvFWb8O8E7-126">
          <mxGeometry x="0.3871" y="-1" relative="1" as="geometry">
            <mxPoint as="offset" />
          </mxGeometry>
        </mxCell>
        <mxCell id="rJBkv8tbgdm5pMixXciQ-65" value="has" style="rhombus;whiteSpace=wrap;html=1;shadow=0;fontFamily=Helvetica;fontSize=12;align=center;strokeWidth=1;spacing=6;spacingTop=-4;" parent="WIyWlLk6GJQsqaUBKTNV-1" vertex="1">
          <mxGeometry x="1460" y="-404" width="120" height="80" as="geometry" />
        </mxCell>
        <mxCell id="LxOonWfDsJAvFWb8O8E7-82" style="edgeStyle=orthogonalEdgeStyle;rounded=0;orthogonalLoop=1;jettySize=auto;html=1;exitX=0.5;exitY=1;exitDx=0;exitDy=0;entryX=0;entryY=0.5;entryDx=0;entryDy=0;strokeColor=default;align=center;verticalAlign=middle;fontFamily=Helvetica;fontSize=11;fontColor=default;labelBackgroundColor=default;endArrow=none;endFill=0;curved=1;" edge="1" parent="WIyWlLk6GJQsqaUBKTNV-1" source="rJBkv8tbgdm5pMixXciQ-66" target="LxOonWfDsJAvFWb8O8E7-81">
          <mxGeometry relative="1" as="geometry" />
        </mxCell>
        <mxCell id="LxOonWfDsJAvFWb8O8E7-99" style="edgeStyle=orthogonalEdgeStyle;rounded=0;orthogonalLoop=1;jettySize=auto;html=1;exitX=0.5;exitY=1;exitDx=0;exitDy=0;entryX=0;entryY=0.5;entryDx=0;entryDy=0;strokeColor=default;align=center;verticalAlign=middle;fontFamily=Helvetica;fontSize=11;fontColor=default;labelBackgroundColor=default;endArrow=none;endFill=0;curved=1;" edge="1" parent="WIyWlLk6GJQsqaUBKTNV-1" source="rJBkv8tbgdm5pMixXciQ-66" target="LxOonWfDsJAvFWb8O8E7-83">
          <mxGeometry relative="1" as="geometry" />
        </mxCell>
        <mxCell id="LxOonWfDsJAvFWb8O8E7-106" style="edgeStyle=orthogonalEdgeStyle;rounded=0;orthogonalLoop=1;jettySize=auto;html=1;exitX=0.5;exitY=1;exitDx=0;exitDy=0;entryX=0;entryY=0.5;entryDx=0;entryDy=0;strokeColor=default;align=center;verticalAlign=middle;fontFamily=Helvetica;fontSize=11;fontColor=default;labelBackgroundColor=default;endArrow=none;endFill=0;curved=1;" edge="1" parent="WIyWlLk6GJQsqaUBKTNV-1" source="rJBkv8tbgdm5pMixXciQ-66" target="LxOonWfDsJAvFWb8O8E7-100">
          <mxGeometry relative="1" as="geometry" />
        </mxCell>
        <mxCell id="LxOonWfDsJAvFWb8O8E7-107" style="edgeStyle=orthogonalEdgeStyle;rounded=0;orthogonalLoop=1;jettySize=auto;html=1;exitX=0.5;exitY=1;exitDx=0;exitDy=0;entryX=0;entryY=0.5;entryDx=0;entryDy=0;strokeColor=default;align=center;verticalAlign=middle;fontFamily=Helvetica;fontSize=11;fontColor=default;labelBackgroundColor=default;endArrow=none;endFill=0;curved=1;" edge="1" parent="WIyWlLk6GJQsqaUBKTNV-1" source="rJBkv8tbgdm5pMixXciQ-66" target="LxOonWfDsJAvFWb8O8E7-101">
          <mxGeometry relative="1" as="geometry" />
        </mxCell>
        <mxCell id="LxOonWfDsJAvFWb8O8E7-108" style="edgeStyle=orthogonalEdgeStyle;rounded=0;orthogonalLoop=1;jettySize=auto;html=1;exitX=0.5;exitY=1;exitDx=0;exitDy=0;entryX=0;entryY=0.5;entryDx=0;entryDy=0;strokeColor=default;align=center;verticalAlign=middle;fontFamily=Helvetica;fontSize=11;fontColor=default;labelBackgroundColor=default;endArrow=none;endFill=0;curved=1;" edge="1" parent="WIyWlLk6GJQsqaUBKTNV-1" source="rJBkv8tbgdm5pMixXciQ-66" target="LxOonWfDsJAvFWb8O8E7-102">
          <mxGeometry relative="1" as="geometry" />
        </mxCell>
        <mxCell id="LxOonWfDsJAvFWb8O8E7-109" style="edgeStyle=orthogonalEdgeStyle;rounded=0;orthogonalLoop=1;jettySize=auto;html=1;exitX=0.5;exitY=1;exitDx=0;exitDy=0;entryX=0;entryY=0.5;entryDx=0;entryDy=0;strokeColor=default;align=center;verticalAlign=middle;fontFamily=Helvetica;fontSize=11;fontColor=default;labelBackgroundColor=default;endArrow=none;endFill=0;curved=1;" edge="1" parent="WIyWlLk6GJQsqaUBKTNV-1" source="rJBkv8tbgdm5pMixXciQ-66" target="LxOonWfDsJAvFWb8O8E7-103">
          <mxGeometry relative="1" as="geometry" />
        </mxCell>
        <mxCell id="LxOonWfDsJAvFWb8O8E7-110" style="edgeStyle=orthogonalEdgeStyle;rounded=0;orthogonalLoop=1;jettySize=auto;html=1;exitX=0.5;exitY=1;exitDx=0;exitDy=0;entryX=0;entryY=0.5;entryDx=0;entryDy=0;strokeColor=default;align=center;verticalAlign=middle;fontFamily=Helvetica;fontSize=11;fontColor=default;labelBackgroundColor=default;endArrow=none;endFill=0;curved=1;" edge="1" parent="WIyWlLk6GJQsqaUBKTNV-1" source="rJBkv8tbgdm5pMixXciQ-66" target="LxOonWfDsJAvFWb8O8E7-104">
          <mxGeometry relative="1" as="geometry" />
        </mxCell>
        <mxCell id="LxOonWfDsJAvFWb8O8E7-111" style="edgeStyle=orthogonalEdgeStyle;rounded=0;orthogonalLoop=1;jettySize=auto;html=1;exitX=0.5;exitY=1;exitDx=0;exitDy=0;entryX=0;entryY=0.5;entryDx=0;entryDy=0;strokeColor=default;align=center;verticalAlign=middle;fontFamily=Helvetica;fontSize=11;fontColor=default;labelBackgroundColor=default;endArrow=none;endFill=0;curved=1;" edge="1" parent="WIyWlLk6GJQsqaUBKTNV-1" source="rJBkv8tbgdm5pMixXciQ-66" target="LxOonWfDsJAvFWb8O8E7-105">
          <mxGeometry relative="1" as="geometry" />
        </mxCell>
        <mxCell id="LxOonWfDsJAvFWb8O8E7-118" style="edgeStyle=orthogonalEdgeStyle;rounded=0;orthogonalLoop=1;jettySize=auto;html=1;exitX=1;exitY=0.5;exitDx=0;exitDy=0;entryX=0;entryY=0.5;entryDx=0;entryDy=0;strokeColor=default;align=center;verticalAlign=middle;fontFamily=Helvetica;fontSize=11;fontColor=default;labelBackgroundColor=default;endArrow=none;endFill=0;curved=1;" edge="1" parent="WIyWlLk6GJQsqaUBKTNV-1" source="rJBkv8tbgdm5pMixXciQ-66" target="rJBkv8tbgdm5pMixXciQ-68">
          <mxGeometry relative="1" as="geometry" />
        </mxCell>
        <mxCell id="LxOonWfDsJAvFWb8O8E7-164" value="1" style="edgeLabel;html=1;align=center;verticalAlign=middle;resizable=0;points=[];fontFamily=Helvetica;fontSize=11;fontColor=default;labelBackgroundColor=default;" vertex="1" connectable="0" parent="LxOonWfDsJAvFWb8O8E7-118">
          <mxGeometry x="-0.8651" relative="1" as="geometry">
            <mxPoint as="offset" />
          </mxGeometry>
        </mxCell>
        <mxCell id="LxOonWfDsJAvFWb8O8E7-139" style="edgeStyle=orthogonalEdgeStyle;rounded=0;orthogonalLoop=1;jettySize=auto;html=1;exitX=0.5;exitY=1;exitDx=0;exitDy=0;entryX=0;entryY=0.5;entryDx=0;entryDy=0;strokeColor=default;align=center;verticalAlign=middle;fontFamily=Helvetica;fontSize=11;fontColor=default;labelBackgroundColor=default;endArrow=none;endFill=0;curved=1;" edge="1" parent="WIyWlLk6GJQsqaUBKTNV-1" source="rJBkv8tbgdm5pMixXciQ-66" target="LxOonWfDsJAvFWb8O8E7-138">
          <mxGeometry relative="1" as="geometry" />
        </mxCell>
        <mxCell id="rJBkv8tbgdm5pMixXciQ-66" value="order" style="rounded=1;whiteSpace=wrap;html=1;fontSize=12;glass=0;strokeWidth=1;shadow=0;" parent="WIyWlLk6GJQsqaUBKTNV-1" vertex="1">
          <mxGeometry x="380" y="-140" width="120" height="40" as="geometry" />
        </mxCell>
        <mxCell id="LxOonWfDsJAvFWb8O8E7-115" style="edgeStyle=orthogonalEdgeStyle;rounded=0;orthogonalLoop=1;jettySize=auto;html=1;exitX=1;exitY=0.5;exitDx=0;exitDy=0;entryX=0;entryY=0.5;entryDx=0;entryDy=0;strokeColor=default;align=center;verticalAlign=middle;fontFamily=Helvetica;fontSize=11;fontColor=default;labelBackgroundColor=default;endArrow=none;endFill=0;curved=1;" edge="1" parent="WIyWlLk6GJQsqaUBKTNV-1" source="rJBkv8tbgdm5pMixXciQ-67" target="rJBkv8tbgdm5pMixXciQ-66">
          <mxGeometry relative="1" as="geometry" />
        </mxCell>
        <mxCell id="LxOonWfDsJAvFWb8O8E7-163" value="N" style="edgeLabel;html=1;align=center;verticalAlign=middle;resizable=0;points=[];fontFamily=Helvetica;fontSize=11;fontColor=default;labelBackgroundColor=default;" vertex="1" connectable="0" parent="LxOonWfDsJAvFWb8O8E7-115">
          <mxGeometry x="0.9048" relative="1" as="geometry">
            <mxPoint as="offset" />
          </mxGeometry>
        </mxCell>
        <mxCell id="rJBkv8tbgdm5pMixXciQ-67" value="has" style="rhombus;whiteSpace=wrap;html=1;shadow=0;fontFamily=Helvetica;fontSize=12;align=center;strokeWidth=1;spacing=6;spacingTop=-4;" parent="WIyWlLk6GJQsqaUBKTNV-1" vertex="1">
          <mxGeometry x="70" y="-120" width="120" height="80" as="geometry" />
        </mxCell>
        <mxCell id="LxOonWfDsJAvFWb8O8E7-119" style="edgeStyle=orthogonalEdgeStyle;rounded=0;orthogonalLoop=1;jettySize=auto;html=1;exitX=1;exitY=0.5;exitDx=0;exitDy=0;entryX=0;entryY=0.5;entryDx=0;entryDy=0;strokeColor=default;align=center;verticalAlign=middle;fontFamily=Helvetica;fontSize=11;fontColor=default;labelBackgroundColor=default;endArrow=none;endFill=0;curved=1;" edge="1" parent="WIyWlLk6GJQsqaUBKTNV-1" source="rJBkv8tbgdm5pMixXciQ-68" target="rJBkv8tbgdm5pMixXciQ-69">
          <mxGeometry relative="1" as="geometry" />
        </mxCell>
        <mxCell id="LxOonWfDsJAvFWb8O8E7-165" value="N" style="edgeLabel;html=1;align=center;verticalAlign=middle;resizable=0;points=[];fontFamily=Helvetica;fontSize=11;fontColor=default;labelBackgroundColor=default;" vertex="1" connectable="0" parent="LxOonWfDsJAvFWb8O8E7-119">
          <mxGeometry x="0.6477" y="7" relative="1" as="geometry">
            <mxPoint as="offset" />
          </mxGeometry>
        </mxCell>
        <mxCell id="rJBkv8tbgdm5pMixXciQ-68" value="contains" style="rhombus;whiteSpace=wrap;html=1;shadow=0;fontFamily=Helvetica;fontSize=12;align=center;strokeWidth=1;spacing=6;spacingTop=-4;" parent="WIyWlLk6GJQsqaUBKTNV-1" vertex="1">
          <mxGeometry x="700" y="-120" width="120" height="80" as="geometry" />
        </mxCell>
        <mxCell id="LxOonWfDsJAvFWb8O8E7-120" style="edgeStyle=orthogonalEdgeStyle;rounded=0;orthogonalLoop=1;jettySize=auto;html=1;exitX=1;exitY=0.5;exitDx=0;exitDy=0;entryX=0;entryY=0.5;entryDx=0;entryDy=0;strokeColor=default;align=center;verticalAlign=middle;fontFamily=Helvetica;fontSize=11;fontColor=default;labelBackgroundColor=default;endArrow=none;endFill=0;curved=1;" edge="1" parent="WIyWlLk6GJQsqaUBKTNV-1" source="rJBkv8tbgdm5pMixXciQ-69" target="rJBkv8tbgdm5pMixXciQ-70">
          <mxGeometry relative="1" as="geometry" />
        </mxCell>
        <mxCell id="LxOonWfDsJAvFWb8O8E7-166" value="N" style="edgeLabel;html=1;align=center;verticalAlign=middle;resizable=0;points=[];fontFamily=Helvetica;fontSize=11;fontColor=default;labelBackgroundColor=default;" vertex="1" connectable="0" parent="LxOonWfDsJAvFWb8O8E7-120">
          <mxGeometry x="-0.6796" y="7" relative="1" as="geometry">
            <mxPoint as="offset" />
          </mxGeometry>
        </mxCell>
        <mxCell id="LxOonWfDsJAvFWb8O8E7-136" style="edgeStyle=orthogonalEdgeStyle;rounded=0;orthogonalLoop=1;jettySize=auto;html=1;exitX=0.5;exitY=1;exitDx=0;exitDy=0;entryX=0;entryY=0.5;entryDx=0;entryDy=0;strokeColor=default;align=center;verticalAlign=middle;fontFamily=Helvetica;fontSize=11;fontColor=default;labelBackgroundColor=default;endArrow=none;endFill=0;curved=1;" edge="1" parent="WIyWlLk6GJQsqaUBKTNV-1" source="rJBkv8tbgdm5pMixXciQ-69" target="LxOonWfDsJAvFWb8O8E7-135">
          <mxGeometry relative="1" as="geometry" />
        </mxCell>
        <mxCell id="LxOonWfDsJAvFWb8O8E7-141" style="edgeStyle=orthogonalEdgeStyle;rounded=0;orthogonalLoop=1;jettySize=auto;html=1;exitX=0.5;exitY=1;exitDx=0;exitDy=0;entryX=0;entryY=0.5;entryDx=0;entryDy=0;strokeColor=default;align=center;verticalAlign=middle;fontFamily=Helvetica;fontSize=11;fontColor=default;labelBackgroundColor=default;endArrow=none;endFill=0;curved=1;" edge="1" parent="WIyWlLk6GJQsqaUBKTNV-1" source="rJBkv8tbgdm5pMixXciQ-69" target="LxOonWfDsJAvFWb8O8E7-137">
          <mxGeometry relative="1" as="geometry" />
        </mxCell>
        <mxCell id="LxOonWfDsJAvFWb8O8E7-142" style="edgeStyle=orthogonalEdgeStyle;rounded=0;orthogonalLoop=1;jettySize=auto;html=1;exitX=0.5;exitY=1;exitDx=0;exitDy=0;entryX=0;entryY=0.5;entryDx=0;entryDy=0;strokeColor=default;align=center;verticalAlign=middle;fontFamily=Helvetica;fontSize=11;fontColor=default;labelBackgroundColor=default;endArrow=none;endFill=0;curved=1;" edge="1" parent="WIyWlLk6GJQsqaUBKTNV-1" source="rJBkv8tbgdm5pMixXciQ-69" target="LxOonWfDsJAvFWb8O8E7-140">
          <mxGeometry relative="1" as="geometry" />
        </mxCell>
        <mxCell id="LxOonWfDsJAvFWb8O8E7-144" style="edgeStyle=orthogonalEdgeStyle;rounded=0;orthogonalLoop=1;jettySize=auto;html=1;exitX=0.5;exitY=1;exitDx=0;exitDy=0;entryX=0;entryY=0.5;entryDx=0;entryDy=0;strokeColor=default;align=center;verticalAlign=middle;fontFamily=Helvetica;fontSize=11;fontColor=default;labelBackgroundColor=default;endArrow=none;endFill=0;curved=1;" edge="1" parent="WIyWlLk6GJQsqaUBKTNV-1" source="rJBkv8tbgdm5pMixXciQ-69" target="LxOonWfDsJAvFWb8O8E7-143">
          <mxGeometry relative="1" as="geometry" />
        </mxCell>
        <mxCell id="LxOonWfDsJAvFWb8O8E7-216" style="edgeStyle=orthogonalEdgeStyle;rounded=0;orthogonalLoop=1;jettySize=auto;html=1;exitX=0.5;exitY=1;exitDx=0;exitDy=0;entryX=0;entryY=0.5;entryDx=0;entryDy=0;strokeColor=default;align=center;verticalAlign=middle;fontFamily=Helvetica;fontSize=11;fontColor=default;labelBackgroundColor=default;endArrow=none;endFill=0;curved=1;" edge="1" parent="WIyWlLk6GJQsqaUBKTNV-1" source="rJBkv8tbgdm5pMixXciQ-69" target="LxOonWfDsJAvFWb8O8E7-215">
          <mxGeometry relative="1" as="geometry" />
        </mxCell>
        <mxCell id="rJBkv8tbgdm5pMixXciQ-69" value="order_item" style="rounded=1;whiteSpace=wrap;html=1;fontSize=12;glass=0;strokeWidth=1;shadow=0;" parent="WIyWlLk6GJQsqaUBKTNV-1" vertex="1">
          <mxGeometry x="865" y="80" width="120" height="40" as="geometry" />
        </mxCell>
        <mxCell id="LxOonWfDsJAvFWb8O8E7-121" style="edgeStyle=orthogonalEdgeStyle;rounded=0;orthogonalLoop=1;jettySize=auto;html=1;exitX=1;exitY=0.5;exitDx=0;exitDy=0;entryX=0;entryY=0.5;entryDx=0;entryDy=0;strokeColor=default;align=center;verticalAlign=middle;fontFamily=Helvetica;fontSize=11;fontColor=default;labelBackgroundColor=default;endArrow=none;endFill=0;curved=1;" edge="1" parent="WIyWlLk6GJQsqaUBKTNV-1" source="rJBkv8tbgdm5pMixXciQ-70" target="rJBkv8tbgdm5pMixXciQ-6">
          <mxGeometry relative="1" as="geometry" />
        </mxCell>
        <mxCell id="LxOonWfDsJAvFWb8O8E7-167" value="1" style="edgeLabel;html=1;align=center;verticalAlign=middle;resizable=0;points=[];fontFamily=Helvetica;fontSize=11;fontColor=default;labelBackgroundColor=default;" vertex="1" connectable="0" parent="LxOonWfDsJAvFWb8O8E7-121">
          <mxGeometry x="0.6249" y="-6" relative="1" as="geometry">
            <mxPoint as="offset" />
          </mxGeometry>
        </mxCell>
        <mxCell id="rJBkv8tbgdm5pMixXciQ-70" value="is" style="rhombus;whiteSpace=wrap;html=1;shadow=0;fontFamily=Helvetica;fontSize=12;align=center;strokeWidth=1;spacing=6;spacingTop=-4;" parent="WIyWlLk6GJQsqaUBKTNV-1" vertex="1">
          <mxGeometry x="1040" y="-10" width="120" height="80" as="geometry" />
        </mxCell>
        <mxCell id="rJBkv8tbgdm5pMixXciQ-73" value="user_id" style="ellipse;whiteSpace=wrap;html=1;" parent="WIyWlLk6GJQsqaUBKTNV-1" vertex="1">
          <mxGeometry x="-310" y="-160" width="120" height="40" as="geometry" />
        </mxCell>
        <mxCell id="rJBkv8tbgdm5pMixXciQ-74" value="first_name" style="ellipse;whiteSpace=wrap;html=1;" parent="WIyWlLk6GJQsqaUBKTNV-1" vertex="1">
          <mxGeometry x="-310" y="-110" width="120" height="40" as="geometry" />
        </mxCell>
        <mxCell id="rJBkv8tbgdm5pMixXciQ-75" value="last_name" style="ellipse;whiteSpace=wrap;html=1;" parent="WIyWlLk6GJQsqaUBKTNV-1" vertex="1">
          <mxGeometry x="-310" y="-60" width="120" height="40" as="geometry" />
        </mxCell>
        <mxCell id="LxOonWfDsJAvFWb8O8E7-128" style="edgeStyle=orthogonalEdgeStyle;rounded=0;orthogonalLoop=1;jettySize=auto;html=1;exitX=1;exitY=0.5;exitDx=0;exitDy=0;entryX=0;entryY=0.5;entryDx=0;entryDy=0;strokeColor=default;align=center;verticalAlign=middle;fontFamily=Helvetica;fontSize=11;fontColor=default;labelBackgroundColor=default;endArrow=none;endFill=0;curved=1;" edge="1" parent="WIyWlLk6GJQsqaUBKTNV-1" source="rJBkv8tbgdm5pMixXciQ-81" target="rJBkv8tbgdm5pMixXciQ-64">
          <mxGeometry relative="1" as="geometry" />
        </mxCell>
        <mxCell id="LxOonWfDsJAvFWb8O8E7-190" value="1" style="edgeLabel;html=1;align=center;verticalAlign=middle;resizable=0;points=[];fontFamily=Helvetica;fontSize=11;fontColor=default;labelBackgroundColor=default;" vertex="1" connectable="0" parent="LxOonWfDsJAvFWb8O8E7-128">
          <mxGeometry x="0.3053" y="6" relative="1" as="geometry">
            <mxPoint as="offset" />
          </mxGeometry>
        </mxCell>
        <mxCell id="rJBkv8tbgdm5pMixXciQ-81" value="has" style="rhombus;whiteSpace=wrap;html=1;shadow=0;fontFamily=Helvetica;fontSize=12;align=center;strokeWidth=1;spacing=6;spacingTop=-4;" parent="WIyWlLk6GJQsqaUBKTNV-1" vertex="1">
          <mxGeometry x="1610" y="-170" width="120" height="80" as="geometry" />
        </mxCell>
        <mxCell id="LxOonWfDsJAvFWb8O8E7-5" style="edgeStyle=orthogonalEdgeStyle;rounded=0;orthogonalLoop=1;jettySize=auto;html=1;exitX=0.5;exitY=1;exitDx=0;exitDy=0;entryX=0;entryY=0.5;entryDx=0;entryDy=0;strokeColor=default;align=center;verticalAlign=middle;fontFamily=Helvetica;fontSize=11;fontColor=default;labelBackgroundColor=default;endArrow=none;endFill=0;curved=1;" edge="1" parent="WIyWlLk6GJQsqaUBKTNV-1" source="rJBkv8tbgdm5pMixXciQ-82" target="LxOonWfDsJAvFWb8O8E7-3">
          <mxGeometry relative="1" as="geometry" />
        </mxCell>
        <mxCell id="LxOonWfDsJAvFWb8O8E7-6" style="edgeStyle=orthogonalEdgeStyle;rounded=0;orthogonalLoop=1;jettySize=auto;html=1;exitX=0.5;exitY=1;exitDx=0;exitDy=0;entryX=0;entryY=0.5;entryDx=0;entryDy=0;strokeColor=default;align=center;verticalAlign=middle;fontFamily=Helvetica;fontSize=11;fontColor=default;labelBackgroundColor=default;endArrow=none;endFill=0;curved=1;" edge="1" parent="WIyWlLk6GJQsqaUBKTNV-1" source="rJBkv8tbgdm5pMixXciQ-82" target="LxOonWfDsJAvFWb8O8E7-4">
          <mxGeometry relative="1" as="geometry" />
        </mxCell>
        <mxCell id="LxOonWfDsJAvFWb8O8E7-7" style="edgeStyle=orthogonalEdgeStyle;rounded=0;orthogonalLoop=1;jettySize=auto;html=1;exitX=0.5;exitY=1;exitDx=0;exitDy=0;entryX=0;entryY=0.5;entryDx=0;entryDy=0;strokeColor=default;align=center;verticalAlign=middle;fontFamily=Helvetica;fontSize=11;fontColor=default;labelBackgroundColor=default;endArrow=none;endFill=0;curved=1;" edge="1" parent="WIyWlLk6GJQsqaUBKTNV-1" source="rJBkv8tbgdm5pMixXciQ-82" target="rJBkv8tbgdm5pMixXciQ-142">
          <mxGeometry relative="1" as="geometry" />
        </mxCell>
        <mxCell id="LxOonWfDsJAvFWb8O8E7-8" style="edgeStyle=orthogonalEdgeStyle;rounded=0;orthogonalLoop=1;jettySize=auto;html=1;exitX=0.5;exitY=1;exitDx=0;exitDy=0;entryX=0;entryY=0.5;entryDx=0;entryDy=0;strokeColor=default;align=center;verticalAlign=middle;fontFamily=Helvetica;fontSize=11;fontColor=default;labelBackgroundColor=default;endArrow=none;endFill=0;curved=1;" edge="1" parent="WIyWlLk6GJQsqaUBKTNV-1" source="rJBkv8tbgdm5pMixXciQ-82" target="rJBkv8tbgdm5pMixXciQ-140">
          <mxGeometry relative="1" as="geometry" />
        </mxCell>
        <mxCell id="LxOonWfDsJAvFWb8O8E7-9" style="edgeStyle=orthogonalEdgeStyle;rounded=0;orthogonalLoop=1;jettySize=auto;html=1;exitX=0.5;exitY=1;exitDx=0;exitDy=0;entryX=0;entryY=0.5;entryDx=0;entryDy=0;strokeColor=default;align=center;verticalAlign=middle;fontFamily=Helvetica;fontSize=11;fontColor=default;labelBackgroundColor=default;endArrow=none;endFill=0;curved=1;" edge="1" parent="WIyWlLk6GJQsqaUBKTNV-1" source="rJBkv8tbgdm5pMixXciQ-82" target="rJBkv8tbgdm5pMixXciQ-138">
          <mxGeometry relative="1" as="geometry" />
        </mxCell>
        <mxCell id="LxOonWfDsJAvFWb8O8E7-198" style="edgeStyle=orthogonalEdgeStyle;rounded=0;orthogonalLoop=1;jettySize=auto;html=1;exitX=0.5;exitY=1;exitDx=0;exitDy=0;entryX=0;entryY=0.5;entryDx=0;entryDy=0;strokeColor=default;align=center;verticalAlign=middle;fontFamily=Helvetica;fontSize=11;fontColor=default;labelBackgroundColor=default;endArrow=none;endFill=0;curved=1;" edge="1" parent="WIyWlLk6GJQsqaUBKTNV-1" source="rJBkv8tbgdm5pMixXciQ-82" target="LxOonWfDsJAvFWb8O8E7-197">
          <mxGeometry relative="1" as="geometry" />
        </mxCell>
        <mxCell id="rJBkv8tbgdm5pMixXciQ-82" value="review" style="rounded=1;whiteSpace=wrap;html=1;fontSize=12;glass=0;strokeWidth=1;shadow=0;" parent="WIyWlLk6GJQsqaUBKTNV-1" vertex="1">
          <mxGeometry x="1620" y="-530" width="120" height="40" as="geometry" />
        </mxCell>
        <mxCell id="rJBkv8tbgdm5pMixXciQ-103" style="edgeStyle=orthogonalEdgeStyle;rounded=0;orthogonalLoop=1;jettySize=auto;html=1;exitX=1;exitY=0.5;exitDx=0;exitDy=0;endArrow=none;endFill=0;curved=1;entryX=0;entryY=0.5;entryDx=0;entryDy=0;" parent="WIyWlLk6GJQsqaUBKTNV-1" source="rJBkv8tbgdm5pMixXciQ-84" target="rJBkv8tbgdm5pMixXciQ-82" edge="1">
          <mxGeometry relative="1" as="geometry">
            <mxPoint x="290" y="-570" as="targetPoint" />
          </mxGeometry>
        </mxCell>
        <mxCell id="LxOonWfDsJAvFWb8O8E7-205" value="N" style="edgeLabel;html=1;align=center;verticalAlign=middle;resizable=0;points=[];fontFamily=Helvetica;fontSize=11;fontColor=default;labelBackgroundColor=default;" vertex="1" connectable="0" parent="rJBkv8tbgdm5pMixXciQ-103">
          <mxGeometry x="0.9357" relative="1" as="geometry">
            <mxPoint as="offset" />
          </mxGeometry>
        </mxCell>
        <mxCell id="rJBkv8tbgdm5pMixXciQ-84" value="has" style="rhombus;whiteSpace=wrap;html=1;shadow=0;fontFamily=Helvetica;fontSize=12;align=center;strokeWidth=1;spacing=6;spacingTop=-4;" parent="WIyWlLk6GJQsqaUBKTNV-1" vertex="1">
          <mxGeometry x="600" y="-770" width="120" height="80" as="geometry" />
        </mxCell>
        <mxCell id="LxOonWfDsJAvFWb8O8E7-13" style="edgeStyle=orthogonalEdgeStyle;rounded=0;orthogonalLoop=1;jettySize=auto;html=1;exitX=0.5;exitY=1;exitDx=0;exitDy=0;entryX=0;entryY=0.5;entryDx=0;entryDy=0;strokeColor=default;align=center;verticalAlign=middle;fontFamily=Helvetica;fontSize=11;fontColor=default;labelBackgroundColor=default;endArrow=none;endFill=0;curved=1;" edge="1" parent="WIyWlLk6GJQsqaUBKTNV-1" source="rJBkv8tbgdm5pMixXciQ-86" target="LxOonWfDsJAvFWb8O8E7-12">
          <mxGeometry relative="1" as="geometry" />
        </mxCell>
        <mxCell id="LxOonWfDsJAvFWb8O8E7-16" style="edgeStyle=orthogonalEdgeStyle;rounded=0;orthogonalLoop=1;jettySize=auto;html=1;exitX=0.5;exitY=1;exitDx=0;exitDy=0;entryX=0;entryY=0.5;entryDx=0;entryDy=0;strokeColor=default;align=center;verticalAlign=middle;fontFamily=Helvetica;fontSize=11;fontColor=default;labelBackgroundColor=default;endArrow=none;endFill=0;curved=1;" edge="1" parent="WIyWlLk6GJQsqaUBKTNV-1" source="rJBkv8tbgdm5pMixXciQ-86" target="LxOonWfDsJAvFWb8O8E7-15">
          <mxGeometry relative="1" as="geometry" />
        </mxCell>
        <mxCell id="LxOonWfDsJAvFWb8O8E7-18" style="edgeStyle=orthogonalEdgeStyle;rounded=0;orthogonalLoop=1;jettySize=auto;html=1;exitX=0.5;exitY=1;exitDx=0;exitDy=0;entryX=0;entryY=0.5;entryDx=0;entryDy=0;strokeColor=default;align=center;verticalAlign=middle;fontFamily=Helvetica;fontSize=11;fontColor=default;labelBackgroundColor=default;endArrow=none;endFill=0;curved=1;" edge="1" parent="WIyWlLk6GJQsqaUBKTNV-1" source="rJBkv8tbgdm5pMixXciQ-86" target="LxOonWfDsJAvFWb8O8E7-17">
          <mxGeometry relative="1" as="geometry" />
        </mxCell>
        <mxCell id="LxOonWfDsJAvFWb8O8E7-203" style="edgeStyle=orthogonalEdgeStyle;rounded=0;orthogonalLoop=1;jettySize=auto;html=1;exitX=0.5;exitY=1;exitDx=0;exitDy=0;entryX=0;entryY=0.5;entryDx=0;entryDy=0;strokeColor=default;align=center;verticalAlign=middle;fontFamily=Helvetica;fontSize=11;fontColor=default;labelBackgroundColor=default;endArrow=none;endFill=0;curved=1;" edge="1" parent="WIyWlLk6GJQsqaUBKTNV-1" source="rJBkv8tbgdm5pMixXciQ-86" target="LxOonWfDsJAvFWb8O8E7-202">
          <mxGeometry relative="1" as="geometry" />
        </mxCell>
        <mxCell id="rJBkv8tbgdm5pMixXciQ-86" value="favorite" style="rounded=1;whiteSpace=wrap;html=1;fontSize=12;glass=0;strokeWidth=1;shadow=0;" parent="WIyWlLk6GJQsqaUBKTNV-1" vertex="1">
          <mxGeometry x="1830" y="245" width="120" height="40" as="geometry" />
        </mxCell>
        <mxCell id="LxOonWfDsJAvFWb8O8E7-112" style="edgeStyle=orthogonalEdgeStyle;rounded=0;orthogonalLoop=1;jettySize=auto;html=1;exitX=1;exitY=0.5;exitDx=0;exitDy=0;entryX=0;entryY=0.5;entryDx=0;entryDy=0;strokeColor=default;align=center;verticalAlign=middle;fontFamily=Helvetica;fontSize=11;fontColor=default;labelBackgroundColor=default;endArrow=none;endFill=0;curved=1;" edge="1" parent="WIyWlLk6GJQsqaUBKTNV-1" source="rJBkv8tbgdm5pMixXciQ-87" target="rJBkv8tbgdm5pMixXciQ-86">
          <mxGeometry relative="1" as="geometry" />
        </mxCell>
        <mxCell id="LxOonWfDsJAvFWb8O8E7-185" value="N" style="edgeLabel;html=1;align=center;verticalAlign=middle;resizable=0;points=[];fontFamily=Helvetica;fontSize=11;fontColor=default;labelBackgroundColor=default;" vertex="1" connectable="0" parent="LxOonWfDsJAvFWb8O8E7-112">
          <mxGeometry x="0.9556" y="-1" relative="1" as="geometry">
            <mxPoint as="offset" />
          </mxGeometry>
        </mxCell>
        <mxCell id="rJBkv8tbgdm5pMixXciQ-87" value="has" style="rhombus;whiteSpace=wrap;html=1;shadow=0;fontFamily=Helvetica;fontSize=12;align=center;strokeWidth=1;spacing=6;spacingTop=-4;" parent="WIyWlLk6GJQsqaUBKTNV-1" vertex="1">
          <mxGeometry x="590" y="430" width="120" height="80" as="geometry" />
        </mxCell>
        <mxCell id="LxOonWfDsJAvFWb8O8E7-20" style="edgeStyle=orthogonalEdgeStyle;rounded=0;orthogonalLoop=1;jettySize=auto;html=1;exitX=1;exitY=0.5;exitDx=0;exitDy=0;entryX=0;entryY=0.5;entryDx=0;entryDy=0;strokeColor=default;align=center;verticalAlign=middle;fontFamily=Helvetica;fontSize=11;fontColor=default;labelBackgroundColor=default;endArrow=none;endFill=0;curved=1;" edge="1" parent="WIyWlLk6GJQsqaUBKTNV-1" source="rJBkv8tbgdm5pMixXciQ-88" target="rJBkv8tbgdm5pMixXciQ-86">
          <mxGeometry relative="1" as="geometry" />
        </mxCell>
        <mxCell id="LxOonWfDsJAvFWb8O8E7-186" value="N" style="edgeLabel;html=1;align=center;verticalAlign=middle;resizable=0;points=[];fontFamily=Helvetica;fontSize=11;fontColor=default;labelBackgroundColor=default;" vertex="1" connectable="0" parent="LxOonWfDsJAvFWb8O8E7-20">
          <mxGeometry x="0.3766" y="4" relative="1" as="geometry">
            <mxPoint as="offset" />
          </mxGeometry>
        </mxCell>
        <mxCell id="rJBkv8tbgdm5pMixXciQ-88" value="marks" style="rhombus;whiteSpace=wrap;html=1;shadow=0;fontFamily=Helvetica;fontSize=12;align=center;strokeWidth=1;spacing=6;spacingTop=-4;" parent="WIyWlLk6GJQsqaUBKTNV-1" vertex="1">
          <mxGeometry x="1630" y="70" width="120" height="80" as="geometry" />
        </mxCell>
        <mxCell id="rJBkv8tbgdm5pMixXciQ-138" value="review_id" style="ellipse;whiteSpace=wrap;html=1;" parent="WIyWlLk6GJQsqaUBKTNV-1" vertex="1">
          <mxGeometry x="1710" y="-480" width="120" height="40" as="geometry" />
        </mxCell>
        <mxCell id="rJBkv8tbgdm5pMixXciQ-140" value="user_id" style="ellipse;whiteSpace=wrap;html=1;" parent="WIyWlLk6GJQsqaUBKTNV-1" vertex="1">
          <mxGeometry x="1710" y="-330" width="120" height="40" as="geometry" />
        </mxCell>
        <mxCell id="rJBkv8tbgdm5pMixXciQ-142" value="product_id" style="ellipse;whiteSpace=wrap;html=1;" parent="WIyWlLk6GJQsqaUBKTNV-1" vertex="1">
          <mxGeometry x="1710" y="-280" width="120" height="40" as="geometry" />
        </mxCell>
        <mxCell id="rJBkv8tbgdm5pMixXciQ-172" value="category_id" style="ellipse;whiteSpace=wrap;html=1;" parent="WIyWlLk6GJQsqaUBKTNV-1" vertex="1">
          <mxGeometry x="1868" y="-20" width="120" height="40" as="geometry" />
        </mxCell>
        <mxCell id="LxOonWfDsJAvFWb8O8E7-3" value="review_comment" style="ellipse;whiteSpace=wrap;html=1;" vertex="1" parent="WIyWlLk6GJQsqaUBKTNV-1">
          <mxGeometry x="1710" y="-380" width="120" height="40" as="geometry" />
        </mxCell>
        <mxCell id="LxOonWfDsJAvFWb8O8E7-4" value="review_rating" style="ellipse;whiteSpace=wrap;html=1;" vertex="1" parent="WIyWlLk6GJQsqaUBKTNV-1">
          <mxGeometry x="1710" y="-430" width="120" height="40" as="geometry" />
        </mxCell>
        <mxCell id="LxOonWfDsJAvFWb8O8E7-10" value="category_name" style="ellipse;whiteSpace=wrap;html=1;" vertex="1" parent="WIyWlLk6GJQsqaUBKTNV-1">
          <mxGeometry x="1868" y="30" width="120" height="40" as="geometry" />
        </mxCell>
        <mxCell id="LxOonWfDsJAvFWb8O8E7-12" value="favorite_id" style="ellipse;whiteSpace=wrap;html=1;" vertex="1" parent="WIyWlLk6GJQsqaUBKTNV-1">
          <mxGeometry x="1922" y="295" width="120" height="40" as="geometry" />
        </mxCell>
        <mxCell id="LxOonWfDsJAvFWb8O8E7-15" value="product_id" style="ellipse;whiteSpace=wrap;html=1;" vertex="1" parent="WIyWlLk6GJQsqaUBKTNV-1">
          <mxGeometry x="1922" y="345" width="120" height="40" as="geometry" />
        </mxCell>
        <mxCell id="LxOonWfDsJAvFWb8O8E7-17" value="user_id" style="ellipse;whiteSpace=wrap;html=1;" vertex="1" parent="WIyWlLk6GJQsqaUBKTNV-1">
          <mxGeometry x="1922" y="395" width="120" height="40" as="geometry" />
        </mxCell>
        <mxCell id="LxOonWfDsJAvFWb8O8E7-25" value="email" style="ellipse;whiteSpace=wrap;html=1;" vertex="1" parent="WIyWlLk6GJQsqaUBKTNV-1">
          <mxGeometry x="-310" y="-10" width="120" height="40" as="geometry" />
        </mxCell>
        <mxCell id="LxOonWfDsJAvFWb8O8E7-32" style="edgeStyle=orthogonalEdgeStyle;rounded=0;orthogonalLoop=1;jettySize=auto;html=1;exitX=0.5;exitY=1;exitDx=0;exitDy=0;entryX=1;entryY=0.5;entryDx=0;entryDy=0;strokeColor=default;align=center;verticalAlign=middle;fontFamily=Helvetica;fontSize=11;fontColor=default;labelBackgroundColor=default;endArrow=none;endFill=0;curved=1;" edge="1" parent="WIyWlLk6GJQsqaUBKTNV-1" source="LxOonWfDsJAvFWb8O8E7-30" target="LxOonWfDsJAvFWb8O8E7-31">
          <mxGeometry relative="1" as="geometry" />
        </mxCell>
        <mxCell id="LxOonWfDsJAvFWb8O8E7-34" style="edgeStyle=orthogonalEdgeStyle;rounded=0;orthogonalLoop=1;jettySize=auto;html=1;exitX=0.5;exitY=1;exitDx=0;exitDy=0;entryX=1;entryY=0.5;entryDx=0;entryDy=0;strokeColor=default;align=center;verticalAlign=middle;fontFamily=Helvetica;fontSize=11;fontColor=default;labelBackgroundColor=default;endArrow=none;endFill=0;curved=1;" edge="1" parent="WIyWlLk6GJQsqaUBKTNV-1" source="LxOonWfDsJAvFWb8O8E7-30" target="LxOonWfDsJAvFWb8O8E7-33">
          <mxGeometry relative="1" as="geometry" />
        </mxCell>
        <mxCell id="LxOonWfDsJAvFWb8O8E7-36" style="edgeStyle=orthogonalEdgeStyle;rounded=0;orthogonalLoop=1;jettySize=auto;html=1;exitX=0.5;exitY=1;exitDx=0;exitDy=0;entryX=1;entryY=0.5;entryDx=0;entryDy=0;strokeColor=default;align=center;verticalAlign=middle;fontFamily=Helvetica;fontSize=11;fontColor=default;labelBackgroundColor=default;endArrow=none;endFill=0;curved=1;" edge="1" parent="WIyWlLk6GJQsqaUBKTNV-1" source="LxOonWfDsJAvFWb8O8E7-30" target="LxOonWfDsJAvFWb8O8E7-35">
          <mxGeometry relative="1" as="geometry" />
        </mxCell>
        <mxCell id="LxOonWfDsJAvFWb8O8E7-38" style="edgeStyle=orthogonalEdgeStyle;rounded=0;orthogonalLoop=1;jettySize=auto;html=1;exitX=0.5;exitY=1;exitDx=0;exitDy=0;entryX=1;entryY=0.5;entryDx=0;entryDy=0;strokeColor=default;align=center;verticalAlign=middle;fontFamily=Helvetica;fontSize=11;fontColor=default;labelBackgroundColor=default;endArrow=none;endFill=0;curved=1;" edge="1" parent="WIyWlLk6GJQsqaUBKTNV-1" source="LxOonWfDsJAvFWb8O8E7-30" target="LxOonWfDsJAvFWb8O8E7-37">
          <mxGeometry relative="1" as="geometry" />
        </mxCell>
        <mxCell id="LxOonWfDsJAvFWb8O8E7-133" style="edgeStyle=orthogonalEdgeStyle;rounded=0;orthogonalLoop=1;jettySize=auto;html=1;exitX=1;exitY=0.5;exitDx=0;exitDy=0;entryX=0;entryY=0.5;entryDx=0;entryDy=0;strokeColor=default;align=center;verticalAlign=middle;fontFamily=Helvetica;fontSize=11;fontColor=default;labelBackgroundColor=default;endArrow=none;endFill=0;curved=1;" edge="1" parent="WIyWlLk6GJQsqaUBKTNV-1" source="LxOonWfDsJAvFWb8O8E7-30" target="LxOonWfDsJAvFWb8O8E7-130">
          <mxGeometry relative="1" as="geometry" />
        </mxCell>
        <mxCell id="LxOonWfDsJAvFWb8O8E7-174" value="N" style="edgeLabel;html=1;align=center;verticalAlign=middle;resizable=0;points=[];fontFamily=Helvetica;fontSize=11;fontColor=default;labelBackgroundColor=default;" vertex="1" connectable="0" parent="LxOonWfDsJAvFWb8O8E7-133">
          <mxGeometry x="-0.4667" y="-11" relative="1" as="geometry">
            <mxPoint as="offset" />
          </mxGeometry>
        </mxCell>
        <mxCell id="LxOonWfDsJAvFWb8O8E7-146" style="edgeStyle=orthogonalEdgeStyle;rounded=0;orthogonalLoop=1;jettySize=auto;html=1;exitX=0.5;exitY=1;exitDx=0;exitDy=0;entryX=1;entryY=0.5;entryDx=0;entryDy=0;strokeColor=default;align=center;verticalAlign=middle;fontFamily=Helvetica;fontSize=11;fontColor=default;labelBackgroundColor=default;endArrow=none;endFill=0;curved=1;" edge="1" parent="WIyWlLk6GJQsqaUBKTNV-1" source="LxOonWfDsJAvFWb8O8E7-30" target="LxOonWfDsJAvFWb8O8E7-145">
          <mxGeometry relative="1" as="geometry" />
        </mxCell>
        <mxCell id="LxOonWfDsJAvFWb8O8E7-30" value="user_address" style="rounded=1;whiteSpace=wrap;html=1;fontSize=12;glass=0;strokeWidth=1;shadow=0;" vertex="1" parent="WIyWlLk6GJQsqaUBKTNV-1">
          <mxGeometry x="160" y="390" width="120" height="40" as="geometry" />
        </mxCell>
        <mxCell id="LxOonWfDsJAvFWb8O8E7-31" value="user_address_id" style="ellipse;whiteSpace=wrap;html=1;" vertex="1" parent="WIyWlLk6GJQsqaUBKTNV-1">
          <mxGeometry x="70" y="440" width="120" height="40" as="geometry" />
        </mxCell>
        <mxCell id="LxOonWfDsJAvFWb8O8E7-33" value="user_id" style="ellipse;whiteSpace=wrap;html=1;" vertex="1" parent="WIyWlLk6GJQsqaUBKTNV-1">
          <mxGeometry x="70" y="490" width="120" height="40" as="geometry" />
        </mxCell>
        <mxCell id="LxOonWfDsJAvFWb8O8E7-35" value="shipping_address_id" style="ellipse;whiteSpace=wrap;html=1;" vertex="1" parent="WIyWlLk6GJQsqaUBKTNV-1">
          <mxGeometry x="70" y="540" width="120" height="40" as="geometry" />
        </mxCell>
        <mxCell id="LxOonWfDsJAvFWb8O8E7-37" value="billing_address_id" style="ellipse;whiteSpace=wrap;html=1;" vertex="1" parent="WIyWlLk6GJQsqaUBKTNV-1">
          <mxGeometry x="70" y="590" width="120" height="40" as="geometry" />
        </mxCell>
        <mxCell id="LxOonWfDsJAvFWb8O8E7-41" style="edgeStyle=orthogonalEdgeStyle;rounded=0;orthogonalLoop=1;jettySize=auto;html=1;exitX=0.5;exitY=1;exitDx=0;exitDy=0;entryX=1;entryY=0.5;entryDx=0;entryDy=0;strokeColor=default;align=center;verticalAlign=middle;fontFamily=Helvetica;fontSize=11;fontColor=default;labelBackgroundColor=default;endArrow=none;endFill=0;curved=1;" edge="1" parent="WIyWlLk6GJQsqaUBKTNV-1" source="LxOonWfDsJAvFWb8O8E7-39" target="LxOonWfDsJAvFWb8O8E7-40">
          <mxGeometry relative="1" as="geometry" />
        </mxCell>
        <mxCell id="LxOonWfDsJAvFWb8O8E7-43" style="edgeStyle=orthogonalEdgeStyle;rounded=0;orthogonalLoop=1;jettySize=auto;html=1;exitX=0.5;exitY=1;exitDx=0;exitDy=0;entryX=1;entryY=0.5;entryDx=0;entryDy=0;strokeColor=default;align=center;verticalAlign=middle;fontFamily=Helvetica;fontSize=11;fontColor=default;labelBackgroundColor=default;endArrow=none;endFill=0;curved=1;" edge="1" parent="WIyWlLk6GJQsqaUBKTNV-1" source="LxOonWfDsJAvFWb8O8E7-39" target="LxOonWfDsJAvFWb8O8E7-42">
          <mxGeometry relative="1" as="geometry" />
        </mxCell>
        <mxCell id="LxOonWfDsJAvFWb8O8E7-58" style="edgeStyle=orthogonalEdgeStyle;rounded=0;orthogonalLoop=1;jettySize=auto;html=1;exitX=0.5;exitY=1;exitDx=0;exitDy=0;entryX=1;entryY=0.5;entryDx=0;entryDy=0;strokeColor=default;align=center;verticalAlign=middle;fontFamily=Helvetica;fontSize=11;fontColor=default;labelBackgroundColor=default;endArrow=none;endFill=0;curved=1;" edge="1" parent="WIyWlLk6GJQsqaUBKTNV-1" source="LxOonWfDsJAvFWb8O8E7-39" target="LxOonWfDsJAvFWb8O8E7-54">
          <mxGeometry relative="1" as="geometry" />
        </mxCell>
        <mxCell id="LxOonWfDsJAvFWb8O8E7-59" style="edgeStyle=orthogonalEdgeStyle;rounded=0;orthogonalLoop=1;jettySize=auto;html=1;exitX=0.5;exitY=1;exitDx=0;exitDy=0;entryX=1;entryY=0.5;entryDx=0;entryDy=0;strokeColor=default;align=center;verticalAlign=middle;fontFamily=Helvetica;fontSize=11;fontColor=default;labelBackgroundColor=default;endArrow=none;endFill=0;curved=1;" edge="1" parent="WIyWlLk6GJQsqaUBKTNV-1" source="LxOonWfDsJAvFWb8O8E7-39" target="LxOonWfDsJAvFWb8O8E7-55">
          <mxGeometry relative="1" as="geometry" />
        </mxCell>
        <mxCell id="LxOonWfDsJAvFWb8O8E7-60" style="edgeStyle=orthogonalEdgeStyle;rounded=0;orthogonalLoop=1;jettySize=auto;html=1;exitX=0.5;exitY=1;exitDx=0;exitDy=0;entryX=1;entryY=0.5;entryDx=0;entryDy=0;strokeColor=default;align=center;verticalAlign=middle;fontFamily=Helvetica;fontSize=11;fontColor=default;labelBackgroundColor=default;endArrow=none;endFill=0;curved=1;" edge="1" parent="WIyWlLk6GJQsqaUBKTNV-1" source="LxOonWfDsJAvFWb8O8E7-39" target="LxOonWfDsJAvFWb8O8E7-56">
          <mxGeometry relative="1" as="geometry" />
        </mxCell>
        <mxCell id="LxOonWfDsJAvFWb8O8E7-61" style="edgeStyle=orthogonalEdgeStyle;rounded=0;orthogonalLoop=1;jettySize=auto;html=1;exitX=0.5;exitY=1;exitDx=0;exitDy=0;entryX=1;entryY=0.5;entryDx=0;entryDy=0;strokeColor=default;align=center;verticalAlign=middle;fontFamily=Helvetica;fontSize=11;fontColor=default;labelBackgroundColor=default;endArrow=none;endFill=0;curved=1;" edge="1" parent="WIyWlLk6GJQsqaUBKTNV-1" source="LxOonWfDsJAvFWb8O8E7-39" target="LxOonWfDsJAvFWb8O8E7-57">
          <mxGeometry relative="1" as="geometry" />
        </mxCell>
        <mxCell id="LxOonWfDsJAvFWb8O8E7-148" style="edgeStyle=orthogonalEdgeStyle;rounded=0;orthogonalLoop=1;jettySize=auto;html=1;exitX=0.5;exitY=1;exitDx=0;exitDy=0;entryX=1;entryY=0.5;entryDx=0;entryDy=0;strokeColor=default;align=center;verticalAlign=middle;fontFamily=Helvetica;fontSize=11;fontColor=default;labelBackgroundColor=default;endArrow=none;endFill=0;curved=1;" edge="1" parent="WIyWlLk6GJQsqaUBKTNV-1" source="LxOonWfDsJAvFWb8O8E7-39" target="LxOonWfDsJAvFWb8O8E7-147">
          <mxGeometry relative="1" as="geometry" />
        </mxCell>
        <mxCell id="LxOonWfDsJAvFWb8O8E7-39" value="address" style="rounded=1;whiteSpace=wrap;html=1;fontSize=12;glass=0;strokeWidth=1;shadow=0;" vertex="1" parent="WIyWlLk6GJQsqaUBKTNV-1">
          <mxGeometry x="547.5" y="640" width="120" height="40" as="geometry" />
        </mxCell>
        <mxCell id="LxOonWfDsJAvFWb8O8E7-40" value="address_id" style="ellipse;whiteSpace=wrap;html=1;" vertex="1" parent="WIyWlLk6GJQsqaUBKTNV-1">
          <mxGeometry x="457.5" y="690" width="120" height="40" as="geometry" />
        </mxCell>
        <mxCell id="LxOonWfDsJAvFWb8O8E7-42" value="city" style="ellipse;whiteSpace=wrap;html=1;" vertex="1" parent="WIyWlLk6GJQsqaUBKTNV-1">
          <mxGeometry x="457.5" y="740" width="120" height="40" as="geometry" />
        </mxCell>
        <mxCell id="LxOonWfDsJAvFWb8O8E7-45" style="edgeStyle=orthogonalEdgeStyle;rounded=0;orthogonalLoop=1;jettySize=auto;html=1;exitX=1;exitY=0.5;exitDx=0;exitDy=0;entryX=0.5;entryY=1;entryDx=0;entryDy=0;strokeColor=default;align=center;verticalAlign=middle;fontFamily=Helvetica;fontSize=11;fontColor=default;labelBackgroundColor=default;endArrow=none;endFill=0;curved=1;" edge="1" parent="WIyWlLk6GJQsqaUBKTNV-1" source="LxOonWfDsJAvFWb8O8E7-44" target="LxOonWfDsJAvFWb8O8E7-39">
          <mxGeometry relative="1" as="geometry" />
        </mxCell>
        <mxCell id="LxOonWfDsJAvFWb8O8E7-44" value="country" style="ellipse;whiteSpace=wrap;html=1;" vertex="1" parent="WIyWlLk6GJQsqaUBKTNV-1">
          <mxGeometry x="457.5" y="790" width="120" height="40" as="geometry" />
        </mxCell>
        <mxCell id="LxOonWfDsJAvFWb8O8E7-54" value="zipcode" style="ellipse;whiteSpace=wrap;html=1;" vertex="1" parent="WIyWlLk6GJQsqaUBKTNV-1">
          <mxGeometry x="457.5" y="840" width="120" height="40" as="geometry" />
        </mxCell>
        <mxCell id="LxOonWfDsJAvFWb8O8E7-55" value="state" style="ellipse;whiteSpace=wrap;html=1;" vertex="1" parent="WIyWlLk6GJQsqaUBKTNV-1">
          <mxGeometry x="457.5" y="890" width="120" height="40" as="geometry" />
        </mxCell>
        <mxCell id="LxOonWfDsJAvFWb8O8E7-56" value="street_name" style="ellipse;whiteSpace=wrap;html=1;" vertex="1" parent="WIyWlLk6GJQsqaUBKTNV-1">
          <mxGeometry x="457.5" y="940" width="120" height="40" as="geometry" />
        </mxCell>
        <mxCell id="LxOonWfDsJAvFWb8O8E7-57" value="street_number" style="ellipse;whiteSpace=wrap;html=1;" vertex="1" parent="WIyWlLk6GJQsqaUBKTNV-1">
          <mxGeometry x="457.5" y="990" width="120" height="40" as="geometry" />
        </mxCell>
        <mxCell id="LxOonWfDsJAvFWb8O8E7-62" value="cart_id" style="ellipse;whiteSpace=wrap;html=1;" vertex="1" parent="WIyWlLk6GJQsqaUBKTNV-1">
          <mxGeometry x="435" y="-430" width="120" height="40" as="geometry" />
        </mxCell>
        <mxCell id="LxOonWfDsJAvFWb8O8E7-63" value="user_id" style="ellipse;whiteSpace=wrap;html=1;" vertex="1" parent="WIyWlLk6GJQsqaUBKTNV-1">
          <mxGeometry x="435" y="-380" width="120" height="40" as="geometry" />
        </mxCell>
        <mxCell id="LxOonWfDsJAvFWb8O8E7-64" value="created_at" style="ellipse;whiteSpace=wrap;html=1;" vertex="1" parent="WIyWlLk6GJQsqaUBKTNV-1">
          <mxGeometry x="435" y="-330" width="120" height="40" as="geometry" />
        </mxCell>
        <mxCell id="LxOonWfDsJAvFWb8O8E7-69" value="password" style="ellipse;whiteSpace=wrap;html=1;" vertex="1" parent="WIyWlLk6GJQsqaUBKTNV-1">
          <mxGeometry x="-310" y="90" width="120" height="40" as="geometry" />
        </mxCell>
        <mxCell id="LxOonWfDsJAvFWb8O8E7-71" value="birthdate" style="ellipse;whiteSpace=wrap;html=1;" vertex="1" parent="WIyWlLk6GJQsqaUBKTNV-1">
          <mxGeometry x="-310" y="40" width="120" height="40" as="geometry" />
        </mxCell>
        <mxCell id="LxOonWfDsJAvFWb8O8E7-73" value="cart_item_id" style="ellipse;whiteSpace=wrap;html=1;" vertex="1" parent="WIyWlLk6GJQsqaUBKTNV-1">
          <mxGeometry x="865" y="-494" width="120" height="40" as="geometry" />
        </mxCell>
        <mxCell id="LxOonWfDsJAvFWb8O8E7-75" value="quantity" style="ellipse;whiteSpace=wrap;html=1;" vertex="1" parent="WIyWlLk6GJQsqaUBKTNV-1">
          <mxGeometry x="865" y="-444" width="120" height="40" as="geometry" />
        </mxCell>
        <mxCell id="LxOonWfDsJAvFWb8O8E7-77" value="product_id" style="ellipse;whiteSpace=wrap;html=1;" vertex="1" parent="WIyWlLk6GJQsqaUBKTNV-1">
          <mxGeometry x="865" y="-394" width="120" height="40" as="geometry" />
        </mxCell>
        <mxCell id="LxOonWfDsJAvFWb8O8E7-79" value="cart_id" style="ellipse;whiteSpace=wrap;html=1;" vertex="1" parent="WIyWlLk6GJQsqaUBKTNV-1">
          <mxGeometry x="865" y="-344" width="120" height="40" as="geometry" />
        </mxCell>
        <mxCell id="LxOonWfDsJAvFWb8O8E7-81" value="order_id" style="ellipse;whiteSpace=wrap;html=1;" vertex="1" parent="WIyWlLk6GJQsqaUBKTNV-1">
          <mxGeometry x="470" y="-90" width="120" height="40" as="geometry" />
        </mxCell>
        <mxCell id="LxOonWfDsJAvFWb8O8E7-83" value="user_id" style="ellipse;whiteSpace=wrap;html=1;" vertex="1" parent="WIyWlLk6GJQsqaUBKTNV-1">
          <mxGeometry x="470" y="-40" width="120" height="40" as="geometry" />
        </mxCell>
        <mxCell id="LxOonWfDsJAvFWb8O8E7-100" value="city" style="ellipse;whiteSpace=wrap;html=1;" vertex="1" parent="WIyWlLk6GJQsqaUBKTNV-1">
          <mxGeometry x="470" y="10" width="120" height="40" as="geometry" />
        </mxCell>
        <mxCell id="LxOonWfDsJAvFWb8O8E7-101" value="country" style="ellipse;whiteSpace=wrap;html=1;" vertex="1" parent="WIyWlLk6GJQsqaUBKTNV-1">
          <mxGeometry x="470" y="60" width="120" height="40" as="geometry" />
        </mxCell>
        <mxCell id="LxOonWfDsJAvFWb8O8E7-102" value="zipcode" style="ellipse;whiteSpace=wrap;html=1;" vertex="1" parent="WIyWlLk6GJQsqaUBKTNV-1">
          <mxGeometry x="470" y="115" width="120" height="40" as="geometry" />
        </mxCell>
        <mxCell id="LxOonWfDsJAvFWb8O8E7-103" value="state" style="ellipse;whiteSpace=wrap;html=1;" vertex="1" parent="WIyWlLk6GJQsqaUBKTNV-1">
          <mxGeometry x="470" y="165" width="120" height="40" as="geometry" />
        </mxCell>
        <mxCell id="LxOonWfDsJAvFWb8O8E7-104" value="street_name" style="ellipse;whiteSpace=wrap;html=1;" vertex="1" parent="WIyWlLk6GJQsqaUBKTNV-1">
          <mxGeometry x="470" y="215" width="120" height="40" as="geometry" />
        </mxCell>
        <mxCell id="LxOonWfDsJAvFWb8O8E7-105" value="street_number" style="ellipse;whiteSpace=wrap;html=1;" vertex="1" parent="WIyWlLk6GJQsqaUBKTNV-1">
          <mxGeometry x="470" y="270" width="120" height="40" as="geometry" />
        </mxCell>
        <mxCell id="LxOonWfDsJAvFWb8O8E7-132" style="edgeStyle=orthogonalEdgeStyle;rounded=0;orthogonalLoop=1;jettySize=auto;html=1;exitX=1;exitY=0.5;exitDx=0;exitDy=0;entryX=0;entryY=0.5;entryDx=0;entryDy=0;strokeColor=default;align=center;verticalAlign=middle;fontFamily=Helvetica;fontSize=11;fontColor=default;labelBackgroundColor=default;endArrow=none;endFill=0;curved=1;" edge="1" parent="WIyWlLk6GJQsqaUBKTNV-1" source="LxOonWfDsJAvFWb8O8E7-129" target="LxOonWfDsJAvFWb8O8E7-30">
          <mxGeometry relative="1" as="geometry" />
        </mxCell>
        <mxCell id="LxOonWfDsJAvFWb8O8E7-173" value="N" style="edgeLabel;html=1;align=center;verticalAlign=middle;resizable=0;points=[];fontFamily=Helvetica;fontSize=11;fontColor=default;labelBackgroundColor=default;" vertex="1" connectable="0" parent="LxOonWfDsJAvFWb8O8E7-132">
          <mxGeometry x="0.6342" y="5" relative="1" as="geometry">
            <mxPoint as="offset" />
          </mxGeometry>
        </mxCell>
        <mxCell id="LxOonWfDsJAvFWb8O8E7-129" value="has" style="rhombus;whiteSpace=wrap;html=1;shadow=0;fontFamily=Helvetica;fontSize=12;align=center;strokeWidth=1;spacing=6;spacingTop=-4;" vertex="1" parent="WIyWlLk6GJQsqaUBKTNV-1">
          <mxGeometry x="10" y="215" width="110" height="80" as="geometry" />
        </mxCell>
        <mxCell id="LxOonWfDsJAvFWb8O8E7-134" style="edgeStyle=orthogonalEdgeStyle;rounded=0;orthogonalLoop=1;jettySize=auto;html=1;exitX=1;exitY=0.5;exitDx=0;exitDy=0;entryX=0;entryY=0.5;entryDx=0;entryDy=0;strokeColor=default;align=center;verticalAlign=middle;fontFamily=Helvetica;fontSize=11;fontColor=default;labelBackgroundColor=default;endArrow=none;endFill=0;curved=1;" edge="1" parent="WIyWlLk6GJQsqaUBKTNV-1" source="LxOonWfDsJAvFWb8O8E7-130" target="LxOonWfDsJAvFWb8O8E7-39">
          <mxGeometry relative="1" as="geometry" />
        </mxCell>
        <mxCell id="LxOonWfDsJAvFWb8O8E7-175" value="1" style="edgeLabel;html=1;align=center;verticalAlign=middle;resizable=0;points=[];fontFamily=Helvetica;fontSize=11;fontColor=default;labelBackgroundColor=default;" vertex="1" connectable="0" parent="LxOonWfDsJAvFWb8O8E7-134">
          <mxGeometry x="0.8009" y="11" relative="1" as="geometry">
            <mxPoint as="offset" />
          </mxGeometry>
        </mxCell>
        <mxCell id="LxOonWfDsJAvFWb8O8E7-130" value="has" style="rhombus;whiteSpace=wrap;html=1;shadow=0;fontFamily=Helvetica;fontSize=12;align=center;strokeWidth=1;spacing=6;spacingTop=-4;" vertex="1" parent="WIyWlLk6GJQsqaUBKTNV-1">
          <mxGeometry x="360" y="500" width="120" height="80" as="geometry" />
        </mxCell>
        <mxCell id="LxOonWfDsJAvFWb8O8E7-135" value="order_item_id" style="ellipse;whiteSpace=wrap;html=1;" vertex="1" parent="WIyWlLk6GJQsqaUBKTNV-1">
          <mxGeometry x="960" y="130" width="120" height="40" as="geometry" />
        </mxCell>
        <mxCell id="LxOonWfDsJAvFWb8O8E7-137" value="quantity" style="ellipse;whiteSpace=wrap;html=1;" vertex="1" parent="WIyWlLk6GJQsqaUBKTNV-1">
          <mxGeometry x="960" y="180" width="120" height="40" as="geometry" />
        </mxCell>
        <mxCell id="LxOonWfDsJAvFWb8O8E7-138" value="created_at" style="ellipse;whiteSpace=wrap;html=1;" vertex="1" parent="WIyWlLk6GJQsqaUBKTNV-1">
          <mxGeometry x="470" y="320" width="120" height="40" as="geometry" />
        </mxCell>
        <mxCell id="LxOonWfDsJAvFWb8O8E7-140" value="product_id" style="ellipse;whiteSpace=wrap;html=1;" vertex="1" parent="WIyWlLk6GJQsqaUBKTNV-1">
          <mxGeometry x="960" y="230" width="120" height="40" as="geometry" />
        </mxCell>
        <mxCell id="LxOonWfDsJAvFWb8O8E7-143" value="order_id" style="ellipse;whiteSpace=wrap;html=1;" vertex="1" parent="WIyWlLk6GJQsqaUBKTNV-1">
          <mxGeometry x="960" y="280" width="120" height="40" as="geometry" />
        </mxCell>
        <mxCell id="LxOonWfDsJAvFWb8O8E7-145" value="created_at" style="ellipse;whiteSpace=wrap;html=1;" vertex="1" parent="WIyWlLk6GJQsqaUBKTNV-1">
          <mxGeometry x="70" y="640" width="120" height="40" as="geometry" />
        </mxCell>
        <mxCell id="LxOonWfDsJAvFWb8O8E7-147" value="created_at" style="ellipse;whiteSpace=wrap;html=1;" vertex="1" parent="WIyWlLk6GJQsqaUBKTNV-1">
          <mxGeometry x="457.5" y="1040" width="120" height="40" as="geometry" />
        </mxCell>
        <mxCell id="LxOonWfDsJAvFWb8O8E7-177" value="product_id" style="ellipse;whiteSpace=wrap;html=1;" vertex="1" parent="WIyWlLk6GJQsqaUBKTNV-1">
          <mxGeometry x="1290" y="-150" width="120" height="40" as="geometry" />
        </mxCell>
        <mxCell id="LxOonWfDsJAvFWb8O8E7-179" value="product_name" style="ellipse;whiteSpace=wrap;html=1;" vertex="1" parent="WIyWlLk6GJQsqaUBKTNV-1">
          <mxGeometry x="1290" y="-100" width="120" height="40" as="geometry" />
        </mxCell>
        <mxCell id="LxOonWfDsJAvFWb8O8E7-180" value="product_price" style="ellipse;whiteSpace=wrap;html=1;" vertex="1" parent="WIyWlLk6GJQsqaUBKTNV-1">
          <mxGeometry x="1290" y="-50" width="120" height="40" as="geometry" />
        </mxCell>
        <mxCell id="LxOonWfDsJAvFWb8O8E7-181" value="product_description" style="ellipse;whiteSpace=wrap;html=1;" vertex="1" parent="WIyWlLk6GJQsqaUBKTNV-1">
          <mxGeometry x="1290" width="120" height="40" as="geometry" />
        </mxCell>
        <mxCell id="LxOonWfDsJAvFWb8O8E7-192" value="category_id" style="ellipse;whiteSpace=wrap;html=1;" vertex="1" parent="WIyWlLk6GJQsqaUBKTNV-1">
          <mxGeometry x="1290" y="50" width="120" height="40" as="geometry" />
        </mxCell>
        <mxCell id="LxOonWfDsJAvFWb8O8E7-194" value="created_at" style="ellipse;whiteSpace=wrap;html=1;" vertex="1" parent="WIyWlLk6GJQsqaUBKTNV-1">
          <mxGeometry x="1290" y="100" width="120" height="40" as="geometry" />
        </mxCell>
        <mxCell id="LxOonWfDsJAvFWb8O8E7-197" value="created_at" style="ellipse;whiteSpace=wrap;html=1;" vertex="1" parent="WIyWlLk6GJQsqaUBKTNV-1">
          <mxGeometry x="1710" y="-230" width="120" height="40" as="geometry" />
        </mxCell>
        <mxCell id="LxOonWfDsJAvFWb8O8E7-199" value="created_at" style="ellipse;whiteSpace=wrap;html=1;" vertex="1" parent="WIyWlLk6GJQsqaUBKTNV-1">
          <mxGeometry x="1868" y="80" width="120" height="40" as="geometry" />
        </mxCell>
        <mxCell id="LxOonWfDsJAvFWb8O8E7-202" value="created_at" style="ellipse;whiteSpace=wrap;html=1;" vertex="1" parent="WIyWlLk6GJQsqaUBKTNV-1">
          <mxGeometry x="1922" y="444" width="120" height="40" as="geometry" />
        </mxCell>
        <mxCell id="LxOonWfDsJAvFWb8O8E7-206" value="created_at" style="ellipse;whiteSpace=wrap;html=1;" vertex="1" parent="WIyWlLk6GJQsqaUBKTNV-1">
          <mxGeometry x="-310" y="140" width="120" height="40" as="geometry" />
        </mxCell>
        <mxCell id="LxOonWfDsJAvFWb8O8E7-213" value="created_at" style="ellipse;whiteSpace=wrap;html=1;" vertex="1" parent="WIyWlLk6GJQsqaUBKTNV-1">
          <mxGeometry x="865" y="-295" width="120" height="40" as="geometry" />
        </mxCell>
        <mxCell id="LxOonWfDsJAvFWb8O8E7-215" value="created_at" style="ellipse;whiteSpace=wrap;html=1;" vertex="1" parent="WIyWlLk6GJQsqaUBKTNV-1">
          <mxGeometry x="960" y="330" width="120" height="40" as="geometry" />
        </mxCell>
      </root>
    </mxGraphModel>
  </diagram>
</mxfile>
